<?xml version="1.0" encoding="utf-8"?>
<!-- Generator: Adobe Illustrator 15.0.0, SVG Export Plug-In . SVG Version: 6.00 Build 0)  -->
<!DOCTYPE svg PUBLIC "-//W3C//DTD SVG 1.1//EN" "http://www.w3.org/Graphics/SVG/1.1/DTD/svg11.dtd">
<svg version="1.1" id="Layer_1" xmlns="http://www.w3.org/2000/svg" xmlns:xlink="http://www.w3.org/1999/xlink" x="0px" y="0px"
	 width="595.28px" height="841.89px" viewBox="0 0 595.28 841.89" enable-background="new 0 0 595.28 841.89" xml:space="preserve">
<g>
	<path fill="#08A650" d="M249.463,541.482c0,0-26.923-149.242,151.25-304.576C400.713,236.906,120.293,399.855,249.463,541.482z"/>
	<path fill="#08A650" d="M215.454,427.012l10.635-32.486c0,0-34.009-39.088-80.713-66.501
		C145.376,328.024,184.513,361.018,215.454,427.012z"/>
	<ellipse fill="#08A650" cx="227.11" cy="335.894" rx="22.082" ry="27.413"/>
	<ellipse fill="#08A650" cx="298.937" cy="244.704" rx="25.89" ry="32.139"/>
	<path fill="#08A650" d="M177.628,437.046c-25.498,16.188-40.948,37.384-40.948,60.581c0,50.816,74.142,92.014,165.592,92.014
		c91.458,0,165.596-41.197,165.596-92.014c0-23.428-15.759-44.814-41.71-61.059c-0.063-0.037-0.124-0.078-0.186-0.119
		c0,0,0.175-1.15,2.468,0.119c32.207,17.84,52.369,41.902,52.369,68.773c0,53.633-79.763,97.113-178.156,97.113
		c-98.39,0-178.155-43.48-178.155-97.113c0-26.668,19.719-50.82,51.639-68.367c0,0,1.65-0.594,2.121-0.326
		C178.473,436.771,177.838,436.916,177.628,437.046"/>
	<g>
		<path fill="#EC2227" d="M111.909,550.07c0.065-0.199,0.165-0.393,0.306-0.578c0.137-0.182,0.291-0.313,0.456-0.383
			c0.161-0.072,0.337-0.094,0.519-0.066c0.186,0.027,0.363,0.086,0.531,0.182c0.165,0.094,0.319,0.217,0.46,0.365
			c0.138,0.146,0.247,0.311,0.323,0.482c0.055,0.125,0.093,0.254,0.113,0.395c0.023,0.141,0.014,0.275-0.034,0.408
			c-0.011,0.32-0.09,0.588-0.237,0.797s-0.343,0.367-0.59,0.475c-0.258,0.113-0.516,0.154-0.776,0.127
			c-0.257-0.031-0.508-0.107-0.741-0.238c-0.236-0.129-0.449-0.305-0.645-0.525c-0.192-0.219-0.347-0.459-0.464-0.727
			c-0.195-0.457-0.302-0.898-0.313-1.328c-0.014-0.436,0.045-0.848,0.172-1.246c0.124-0.398,0.309-0.771,0.546-1.119
			c0.236-0.346,0.505-0.666,0.8-0.953c0.298-0.289,0.614-0.543,0.943-0.762c0.33-0.223,0.652-0.402,0.968-0.535
			c0.439-0.193,0.893-0.33,1.355-0.416c0.467-0.078,0.938-0.117,1.414-0.104c0.474,0.012,0.951,0.066,1.428,0.162
			c0.477,0.1,0.95,0.227,1.424,0.389l-1.349-3.104l0.601-1.891l3.552,8.16c-0.105,0.303-0.205,0.578-0.295,0.82
			c-0.079,0.209-0.157,0.402-0.233,0.58c-0.079,0.18-0.13,0.275-0.161,0.289c-0.161-0.367-0.34-0.689-0.532-0.965
			c-0.195-0.275-0.408-0.535-0.631-0.779c-0.542-0.594-1.092-1.049-1.651-1.359c-0.559-0.311-1.125-0.504-1.702-0.582
			c-0.576-0.08-1.163-0.059-1.764,0.064c-0.604,0.127-1.218,0.322-1.846,0.598c-0.258,0.113-0.532,0.287-0.817,0.527
			c-0.288,0.24-0.539,0.52-0.751,0.832c-0.213,0.309-0.364,0.641-0.453,0.994C111.744,549.406,111.769,549.746,111.909,550.07z"/>
		<path fill="#EC2227" d="M118.906,557.053c-0.408-0.068-0.782-0.213-1.122-0.436s-0.614-0.508-0.834-0.852
			c-0.243-0.387-0.391-0.748-0.438-1.08c-0.052-0.336,0.007-0.715,0.178-1.127c0.038-0.027,0.072-0.047,0.1-0.07
			c0.027-0.021,0.052-0.045,0.079-0.07c0.024-0.023,0.048-0.051,0.072-0.074c0.027-0.027,0.051-0.055,0.068-0.086
			c0.052-0.059,0.106-0.117,0.165-0.172c0.058-0.055,0.12-0.104,0.182-0.145c0.288-0.178,0.573-0.273,0.858-0.285
			c0.288-0.006,0.563,0.049,0.826,0.166c0.265,0.115,0.512,0.287,0.745,0.512c0.237,0.223,0.442,0.477,0.625,0.762
			c0.03,0.047,0.068,0.113,0.113,0.195c0.051,0.078,0.092,0.164,0.13,0.25c0.021,0.035,0.038,0.068,0.052,0.1
			c0.014,0.037,0.023,0.072,0.034,0.113c0.243-0.191,0.433-0.395,0.566-0.607c0.13-0.217,0.227-0.432,0.281-0.652
			c0.055-0.223,0.075-0.445,0.055-0.67c-0.014-0.229-0.048-0.451-0.1-0.668c-0.058-0.24-0.13-0.471-0.209-0.693
			c-0.079-0.221-0.151-0.43-0.22-0.629c-0.059-0.172-0.116-0.346-0.158-0.518c-0.044-0.176-0.048-0.318-0.014-0.445
			c-0.007-0.154,0.004-0.289,0.034-0.412c0.028-0.121,0.065-0.234,0.117-0.336c0.021-0.053,0.045-0.104,0.068-0.148
			c0.021-0.049,0.045-0.104,0.065-0.158c0.052-0.109,0.089-0.213,0.106-0.309c0.038-0.123,0.065-0.246,0.089-0.373
			c0.021-0.127,0.038-0.258,0.048-0.396c0.028-0.137,0.049-0.283,0.065-0.445c0.018-0.158,0.048-0.389,0.097-0.686l6.712,10.639
			l-0.284,1.99l-1.518-2.402l-9.118,5.754c-0.03-0.047-0.048-0.127-0.051-0.232c-0.004-0.109,0-0.221,0.014-0.326
			c0.007-0.137,0.021-0.281,0.051-0.439c0.151-0.172,0.313-0.354,0.474-0.549s0.313-0.402,0.45-0.611
			c0.134-0.209,0.247-0.428,0.343-0.654c0.096-0.23,0.154-0.457,0.172-0.684c0.014-0.137,0.027-0.295,0.041-0.471
			c0.014-0.174,0.024-0.357,0.034-0.545c0.007-0.186,0.007-0.367,0-0.543C118.948,557.355,118.931,557.193,118.906,557.053z
			 M125.736,555.557l-2.691-4.266c-0.023,0.34-0.044,0.676-0.068,1.006c-0.021,0.33-0.059,0.658-0.109,0.988
			c-0.065,0.4-0.158,0.785-0.285,1.152c-0.123,0.367-0.313,0.693-0.556,0.982c-0.213,0.232-0.443,0.48-0.7,0.738
			c-0.254,0.26-0.525,0.467-0.816,0.623c-0.076,0.42-0.162,0.832-0.262,1.232c-0.096,0.408-0.202,0.811-0.315,1.209L125.736,555.557
			z"/>
		<path fill="#EC2227" d="M129.233,560.125l-8.648,6.877c-0.034-0.041-0.052-0.162-0.055-0.361c-0.007-0.197-0.007-0.41-0.007-0.641
			c0.007-0.264,0.017-0.566,0.034-0.902l6.222-4.949c0.24-0.191,0.442-0.391,0.607-0.594c0.165-0.199,0.271-0.408,0.319-0.621
			c0.051-0.217,0.034-0.432-0.045-0.656s-0.233-0.459-0.47-0.703l0.257-1.818c0.104,0.15,0.188,0.268,0.258,0.363
			c0.068,0.09,0.127,0.166,0.175,0.227c0.048,0.063,0.093,0.113,0.134,0.158c0.038,0.045,0.082,0.092,0.124,0.15
			c0.188,0.234,0.325,0.457,0.425,0.67c0.097,0.217,0.154,0.43,0.172,0.643c0.021,0.209-0.004,0.424-0.059,0.648
			c-0.062,0.223-0.15,0.463-0.271,0.717c0.093-0.104,0.198-0.223,0.318-0.357c0.12-0.137,0.265-0.295,0.426-0.477
			c0.168-0.182,0.364-0.395,0.594-0.629c0.227-0.236,0.498-0.514,0.807-0.83l0.059,0.982c-0.124,0.133-0.206,0.24-0.261,0.314
			c-0.052,0.08-0.09,0.152-0.11,0.23c-0.01,0.063-0.027,0.15-0.041,0.275c-0.003,0.051-0.003,0.105-0.007,0.164
			s-0.011,0.119-0.024,0.191l1.13,1.422l-0.09,1.982L129.233,560.125z"/>
		<path fill="#EC2227" d="M132.822,564.844c0.024-0.068,0.024-0.141,0.007-0.221c-0.021-0.078-0.051-0.16-0.096-0.242
			c-0.045-0.08-0.1-0.158-0.154-0.238c-0.059-0.072-0.106-0.141-0.145-0.199c-0.023-0.033-0.044-0.068-0.062-0.102
			c-0.018-0.031-0.031-0.066-0.041-0.096l-2.244-2.342l-0.145-2.035l8.511,8.879l0.075,1.963l-4.674-4.873
			c-0.01,0.027-0.014,0.059-0.017,0.088c0,0.029,0,0.057-0.004,0.08c0,0.031,0,0.063,0,0.09c-0.003,0.029-0.003,0.061,0,0.088
			c0,0.035,0,0.066-0.007,0.094c0,0.031-0.003,0.064-0.011,0.102c0.289,0.379,0.516,0.787,0.68,1.227
			c0.165,0.441,0.258,0.879,0.274,1.314c0.018,0.432-0.041,0.85-0.178,1.252c-0.141,0.398-0.367,0.752-0.687,1.057
			c-0.347,0.33-0.711,0.525-1.095,0.58c-0.381,0.059-0.775,0.035-1.178-0.068c-0.198-0.049-0.395-0.109-0.593-0.182
			c-0.199-0.072-0.398-0.15-0.601-0.244c-0.158-0.064-0.313-0.131-0.46-0.203c-0.151-0.064-0.306-0.133-0.467-0.197
			c0.106,0.336,0.202,0.635,0.288,0.895c0.086,0.258,0.168,0.49,0.247,0.707s0.147,0.412,0.209,0.594
			c0.065,0.178,0.124,0.357,0.176,0.531c0.058,0.189,0.105,0.381,0.15,0.584c0.041,0.207,0.079,0.434,0.113,0.676
			c0.031,0.248,0.055,0.525,0.072,0.834c0.017,0.313,0.031,0.67,0.038,1.078l-1.006,1.877c0.034-0.947-0.034-1.887-0.202-2.828
			c-0.169-0.936-0.412-1.854-0.738-2.744c-0.326-0.893-0.703-1.754-1.146-2.586c-0.439-0.83-0.912-1.605-1.417-2.332l1.317-3.402
			c0.192,0.818,0.443,1.518,0.755,2.104c0.306,0.584,0.68,1.105,1.116,1.559c0.141,0.148,0.315,0.307,0.524,0.471
			c0.206,0.168,0.423,0.326,0.659,0.484c0.236,0.154,0.483,0.295,0.738,0.418c0.257,0.123,0.504,0.219,0.734,0.285
			c0.233,0.064,0.452,0.086,0.651,0.068c0.203-0.018,0.371-0.092,0.505-0.219c0.165-0.162,0.274-0.344,0.326-0.553
			c0.048-0.203,0.051-0.416,0.007-0.635c-0.045-0.221-0.127-0.439-0.251-0.66c-0.123-0.215-0.274-0.418-0.456-0.607
			c-0.041-0.045-0.09-0.088-0.138-0.131c-0.048-0.037-0.1-0.07-0.154-0.098c-0.186,0.15-0.422,0.25-0.703,0.301
			c-0.278,0.053-0.57,0.063-0.865,0.031c-0.302-0.027-0.59-0.104-0.868-0.219c-0.281-0.121-0.515-0.279-0.703-0.479
			c-0.147-0.154-0.268-0.318-0.36-0.496c-0.09-0.184-0.147-0.361-0.169-0.543c-0.021-0.178-0.003-0.357,0.052-0.531
			c0.059-0.176,0.161-0.33,0.309-0.475c0.254-0.24,0.536-0.373,0.841-0.391c0.313-0.021,0.628,0.018,0.954,0.105
			c0.158,0.045,0.316,0.1,0.471,0.166c0.154,0.061,0.309,0.127,0.463,0.197c0.138,0.066,0.268,0.131,0.395,0.199
			C132.579,564.721,132.702,564.781,132.822,564.844z"/>
		<path fill="#EC2227" d="M139.882,571.092l-7.354,8.244c-0.045-0.035-0.082-0.15-0.12-0.348c-0.038-0.191-0.075-0.404-0.113-0.631
			c-0.037-0.264-0.079-0.563-0.12-0.893l5.296-5.934c0.205-0.229,0.37-0.455,0.501-0.686c0.127-0.223,0.195-0.447,0.205-0.67
			c0.015-0.215-0.037-0.428-0.154-0.639c-0.113-0.209-0.309-0.41-0.583-0.609l-0.052-1.836c0.127,0.127,0.23,0.232,0.316,0.313
			c0.078,0.074,0.15,0.143,0.209,0.195c0.059,0.051,0.113,0.096,0.158,0.133c0.044,0.039,0.096,0.076,0.15,0.127
			c0.22,0.195,0.398,0.395,0.528,0.588c0.131,0.195,0.227,0.398,0.278,0.6c0.055,0.207,0.072,0.422,0.052,0.656
			c-0.021,0.227-0.069,0.48-0.145,0.752c0.072-0.121,0.158-0.254,0.254-0.408c0.097-0.156,0.21-0.334,0.344-0.543
			c0.13-0.209,0.291-0.449,0.474-0.717c0.185-0.271,0.404-0.592,0.655-0.959l0.223,0.959c-0.096,0.154-0.165,0.273-0.202,0.355
			c-0.038,0.086-0.062,0.17-0.068,0.248c-0.004,0.059,0,0.154,0.003,0.277c0.007,0.053,0.018,0.107,0.021,0.162
			c0.007,0.059,0.011,0.123,0.011,0.195l1.352,1.207l0.247,1.971L139.882,571.092z"/>
		<path fill="#EC2227" d="M141.972,577.07c-0.134,0.148-0.292,0.248-0.47,0.299c-0.183,0.051-0.367,0.066-0.557,0.041
			c-0.191-0.023-0.384-0.078-0.576-0.164c-0.195-0.086-0.374-0.193-0.542-0.322c-0.182-0.145-0.319-0.307-0.401-0.48
			c-0.083-0.172-0.131-0.35-0.138-0.533c-0.01-0.182,0.018-0.354,0.072-0.523c0.059-0.17,0.137-0.32,0.243-0.453
			c0.179-0.227,0.374-0.385,0.594-0.467c0.213-0.086,0.426-0.117,0.639-0.104c0.209,0.02,0.412,0.068,0.601,0.154
			c0.188,0.078,0.35,0.176,0.48,0.275c0.059-0.076,0.134-0.184,0.223-0.326c0.093-0.141,0.165-0.295,0.217-0.457
			c0.055-0.164,0.075-0.322,0.068-0.477c-0.011-0.154-0.082-0.289-0.22-0.393l-1.606-1.258l-0.157-1.785l9.218,7.217l0.354,1.936
			l-2.08-1.627c0.014,0.34-0.03,0.662-0.13,0.961c-0.1,0.303-0.251,0.576-0.45,0.834c-0.185,0.236-0.425,0.461-0.721,0.674
			c-0.298,0.211-0.621,0.369-0.978,0.48c-0.351,0.102-0.718,0.137-1.095,0.098c-0.378-0.041-0.738-0.191-1.078-0.459
			c-0.209-0.164-0.391-0.346-0.542-0.553c-0.147-0.203-0.274-0.418-0.384-0.641c-0.11-0.225-0.203-0.457-0.278-0.693
			c-0.072-0.234-0.138-0.475-0.195-0.707c-0.014-0.09-0.035-0.186-0.059-0.275C141.999,577.246,141.982,577.156,141.972,577.07z
			 M146.652,576.621l-3.054-2.393c-0.004,0.111-0.024,0.24-0.065,0.395c-0.031,0.158-0.1,0.338-0.188,0.543
			c-0.048,0.109-0.097,0.207-0.145,0.277c-0.048,0.08-0.089,0.162-0.123,0.258c0.01,0.199,0.055,0.443,0.134,0.729
			c0.079,0.281,0.179,0.566,0.302,0.848c0.124,0.285,0.258,0.545,0.412,0.793c0.15,0.246,0.313,0.428,0.483,0.555
			c0.666,0.516,1.28,0.408,1.843-0.309c0.069-0.086,0.151-0.203,0.258-0.346c0.103-0.145,0.192-0.299,0.264-0.461
			c0.072-0.16,0.106-0.322,0.104-0.48C146.876,576.875,146.801,576.734,146.652,576.621z"/>
		<path fill="#EC2227" d="M144.309,580.873c0.041-0.082,0.072-0.189,0.106-0.316c0.031-0.127,0.063-0.26,0.086-0.396
			c0.024-0.139,0.045-0.275,0.055-0.408c0.011-0.135,0.018-0.252,0.011-0.354c0.137-0.072,0.268-0.148,0.391-0.221
			c0.124-0.072,0.265-0.16,0.426-0.268c0.093,0.141,0.151,0.348,0.172,0.617c0.024,0.271,0.024,0.557,0.007,0.855
			s-0.048,0.584-0.096,0.852c-0.045,0.27-0.083,0.473-0.113,0.609c0.048,0.1,0.092,0.238,0.137,0.416s0.086,0.371,0.127,0.58
			c0.038,0.205,0.076,0.422,0.106,0.639c0.027,0.215,0.045,0.418,0.055,0.596l3.762-5.363l-1.342-0.939
			c-0.041-0.008-0.079-0.039-0.11-0.09c-0.027-0.027-0.044-0.063-0.048-0.096l-0.044-0.186c-0.018-0.068-0.035-0.15-0.059-0.244
			c-0.021-0.088-0.045-0.182-0.062-0.281c-0.024-0.1-0.049-0.213-0.072-0.336c-0.021-0.127-0.048-0.244-0.076-0.357
			c-0.023-0.123-0.055-0.26-0.089-0.4l4.921,3.451c0.052,0.213,0.106,0.426,0.169,0.646c0.044,0.191,0.099,0.4,0.154,0.623
			c0.062,0.227,0.116,0.451,0.171,0.674l-2.278-1.6l-5.889,8.398c-0.038-0.029-0.086-0.094-0.147-0.199
			c-0.063-0.104-0.117-0.217-0.169-0.338c-0.064-0.137-0.13-0.287-0.198-0.453c0.164-0.369,0.268-0.748,0.315-1.129
			s0.059-0.734,0.038-1.061c-0.021-0.324-0.065-0.607-0.131-0.844c-0.068-0.24-0.138-0.408-0.206-0.498
			c-0.134,0.107-0.292,0.189-0.47,0.248c-0.183,0.059-0.367,0.086-0.563,0.082c-0.195,0-0.391-0.031-0.58-0.086
			c-0.191-0.055-0.374-0.141-0.538-0.258c-0.213-0.146-0.395-0.318-0.546-0.518c-0.151-0.191-0.261-0.395-0.326-0.6
			c-0.062-0.211-0.082-0.426-0.055-0.643c0.031-0.219,0.116-0.432,0.265-0.643c0.134-0.188,0.302-0.342,0.504-0.459
			c0.199-0.119,0.419-0.195,0.646-0.227c0.229-0.035,0.467-0.02,0.717,0.037c0.247,0.055,0.484,0.166,0.707,0.32
			c0.034,0.023,0.062,0.051,0.086,0.074C144.261,580.809,144.285,580.84,144.309,580.873z"/>
		<path fill="#EC2227" d="M154.227,581.928l-2.158,3.441c0.573,0,1.088-0.018,1.541-0.049c0.446-0.031,0.889-0.047,1.321-0.061
			c0.236-0.008,0.474-0.004,0.714,0.002c0.24,0.012,0.497,0.027,0.765,0.057c0.274,0.027,0.56,0.068,0.861,0.119
			c0.299,0.051,0.628,0.121,0.985,0.203l1.129,2.457c-0.837,0.432-1.606,0.916-2.316,1.455c-0.707,0.541-1.294,1.176-1.754,1.91
			c-0.284,0.451-0.528,0.938-0.734,1.457c-0.209,0.514-0.433,1.08-0.669,1.691l-0.71-1.016c0.24-0.738,0.487-1.453,0.741-2.133
			c0.257-0.682,0.587-1.342,0.988-1.979c0.227-0.367,0.474-0.719,0.741-1.055c0.264-0.332,0.56-0.654,0.878-0.957
			c-0.521-0.113-1.05-0.178-1.578-0.195c-0.532-0.021-1.058,0.018-1.579,0.104c-0.518,0.084-1.022,0.227-1.52,0.418
			c-0.494,0.191-0.965,0.432-1.407,0.721l-0.67-2.348l3.161-5.041l-1.331-0.83l-0.601-1.926l11.167,7l0.604,1.926L154.227,581.928z"
			/>
		<path fill="#EC2227" d="M168.939,592.703c0.284-0.752,0.61-1.49,0.988-2.211c0.374-0.721,0.782-1.488,1.222-2.303l0.524,0.943
			l0.024,0.186c-0.062,0.131-0.103,0.244-0.127,0.338c-0.021,0.092-0.024,0.182-0.014,0.268c0.014,0.082,0.041,0.17,0.082,0.256
			c0.041,0.09,0.106,0.193,0.195,0.309l0.625,0.334l0.46,0.244l0.687,1.842l-2.529-1.346l-5.059,9.523
			c-0.147-0.236-0.265-0.432-0.34-0.586c-0.075-0.162-0.145-0.305-0.192-0.443c-0.051-0.137-0.103-0.271-0.15-0.412
			c-0.045-0.137-0.097-0.283-0.147-0.441c0.49-0.875,0.937-1.654,1.328-2.348c0.168-0.291,0.329-0.584,0.487-0.865
			c0.161-0.285,0.302-0.539,0.429-0.766c0.123-0.223,0.223-0.408,0.299-0.553c0.075-0.141,0.116-0.219,0.123-0.229
			c0.055-0.104,0.093-0.252,0.11-0.443c0.014-0.191,0.014-0.398,0-0.617c-0.018-0.217-0.049-0.436-0.093-0.643
			c-0.045-0.209-0.1-0.381-0.165-0.508l-5.261,1.26l-1.514-1.551c0.182-0.053,0.319-0.09,0.419-0.109
			c0.1-0.021,0.195-0.043,0.288-0.063c0.089-0.018,0.175-0.035,0.261-0.055c0.086-0.018,0.168-0.039,0.254-0.055
			c0.172-0.049,0.322-0.107,0.446-0.186c0.123-0.072,0.22-0.168,0.285-0.289c0.055-0.105,0.096-0.213,0.13-0.322
			c0.031-0.109,0.048-0.219,0.045-0.326c-0.004-0.105-0.024-0.203-0.076-0.289c-0.044-0.084-0.12-0.156-0.223-0.215
			c-0.1-0.049-0.209-0.09-0.336-0.109c-0.124-0.025-0.268-0.049-0.423-0.07c-0.075-0.01-0.15-0.02-0.223-0.033
			c-0.075-0.008-0.145-0.021-0.209-0.031c-0.072-0.018-0.145-0.035-0.21-0.059c-0.072-0.02-0.137-0.047-0.199-0.078
			c-0.12-0.066-0.219-0.152-0.302-0.266c-0.079-0.113-0.144-0.236-0.188-0.369c-0.045-0.131-0.068-0.266-0.065-0.395
			c0.004-0.127,0.031-0.244,0.082-0.34c0.056-0.104,0.127-0.193,0.22-0.266c0.09-0.072,0.186-0.129,0.285-0.178
			c0.405-0.213,0.82-0.381,1.246-0.504c0.425-0.125,0.857-0.189,1.301-0.199c0.438-0.01,0.892,0.041,1.349,0.15
			c0.456,0.113,0.916,0.289,1.372,0.531c0.443,0.238,0.824,0.52,1.144,0.855c0.315,0.33,0.576,0.686,0.778,1.074
			c0.196,0.385,0.34,0.789,0.43,1.207c0.089,0.42,0.13,0.842,0.127,1.268c0,0.072,0,0.145,0,0.227S168.939,592.613,168.939,592.703z
			 M163.396,589.01c0.182,0.113,0.337,0.262,0.471,0.439c0.127,0.182,0.223,0.377,0.284,0.584c0.059,0.205,0.083,0.414,0.079,0.625
			c-0.007,0.213-0.052,0.4-0.141,0.568l3.144-0.713c-0.096-0.275-0.24-0.525-0.436-0.752c-0.196-0.223-0.433-0.408-0.7-0.553
			c-0.474-0.25-0.938-0.4-1.39-0.453C164.255,588.709,163.818,588.791,163.396,589.01z"/>
		<path fill="#EC2227" d="M165.486,599.971c0.021-0.02,0.034-0.041,0.045-0.064c0.011-0.021,0.021-0.037,0.027-0.049
			c0.062-0.1,0.117-0.199,0.165-0.301c0.044-0.104,0.089-0.213,0.123-0.322c0.041-0.113,0.079-0.227,0.127-0.348
			c0.045-0.117,0.104-0.25,0.168-0.391l0.183,0.006c0.134,0.066,0.233,0.193,0.302,0.371c0.068,0.186,0.116,0.385,0.145,0.598
			c0.027,0.215,0.03,0.426,0.014,0.625c-0.014,0.201-0.042,0.355-0.076,0.463c-0.044,0.045-0.089,0.092-0.12,0.141
			c-0.034,0.051-0.062,0.1-0.086,0.146c-0.034,0.07-0.062,0.139-0.082,0.207c-0.021,0.072-0.041,0.145-0.059,0.219
			c0.093,0.152,0.196,0.34,0.31,0.57c0.116,0.227,0.229,0.473,0.343,0.738c0.11,0.264,0.213,0.541,0.309,0.83
			c0.093,0.291,0.162,0.572,0.21,0.844c0.044,0.271,0.062,0.525,0.048,0.758c-0.014,0.234-0.068,0.43-0.165,0.588l-0.34,0.055
			l-0.168-0.244c-0.055-0.227-0.147-0.504-0.274-0.834c-0.127-0.328-0.274-0.668-0.442-1.02c-0.165-0.346-0.337-0.678-0.515-0.994
			c-0.179-0.316-0.34-0.574-0.491-0.77c-0.175,0.053-0.35,0.104-0.525,0.152c-0.178,0.043-0.356,0.078-0.538,0.092
			c-0.21,0.021-0.43,0.014-0.646-0.02c-0.22-0.035-0.456-0.107-0.71-0.217c-0.255-0.121-0.502-0.264-0.731-0.443
			c-0.233-0.178-0.422-0.377-0.573-0.604c-0.15-0.221-0.243-0.461-0.277-0.715c-0.042-0.254,0.01-0.518,0.141-0.789
			c0.12-0.246,0.288-0.439,0.504-0.568c0.217-0.139,0.45-0.227,0.704-0.266c0.257-0.037,0.524-0.029,0.806,0.018
			c0.282,0.049,0.55,0.137,0.807,0.262c0.189,0.096,0.364,0.219,0.525,0.369c0.161,0.152,0.309,0.299,0.439,0.447
			c0.062,0.068,0.116,0.133,0.164,0.195c0.049,0.063,0.097,0.121,0.138,0.172C165.445,599.924,165.47,599.957,165.486,599.971z
			 M163.729,599.912c-0.086-0.037-0.186-0.088-0.299-0.141c-0.113-0.051-0.229-0.088-0.35-0.113c-0.12-0.023-0.23-0.023-0.326-0.002
			c-0.096,0.016-0.172,0.078-0.22,0.178c-0.059,0.123-0.059,0.23,0,0.318c0.062,0.094,0.172,0.186,0.336,0.283
			c0.113,0.068,0.251,0.127,0.409,0.168c0.157,0.043,0.312,0.072,0.456,0.082c0.151,0.01,0.281,0.006,0.398-0.014
			c0.113-0.021,0.185-0.055,0.213-0.113c0.03-0.059,0.023-0.123-0.018-0.193c-0.045-0.064-0.1-0.127-0.175-0.186
			c-0.072-0.057-0.147-0.111-0.227-0.156C163.843,599.975,163.777,599.938,163.729,599.912z"/>
		<path fill="#EC2227" d="M180.072,595.727l-4.493,9.777c-0.127-0.152-0.209-0.254-0.25-0.313c-0.038-0.059-0.068-0.117-0.093-0.176
			c-0.018-0.051-0.045-0.119-0.075-0.195c-0.027-0.078-0.065-0.182-0.11-0.305c-0.037-0.207-0.068-0.426-0.089-0.666
			c-0.027-0.236-0.059-0.494-0.096-0.766c-0.042-0.271-0.093-0.545-0.151-0.83c-0.062-0.285-0.151-0.574-0.265-0.869
			c-0.109-0.291-0.247-0.582-0.411-0.881c-0.169-0.295-0.378-0.584-0.628-0.869c-0.251-0.285-0.55-0.563-0.899-0.838
			c-0.351-0.273-0.762-0.535-1.235-0.781l-0.697-2.551c1.346-0.164,2.674-0.254,3.984-0.258c1.308-0.01,2.619,0.098,3.94,0.32
			l0.198-0.43l-6.623-3.043l-0.848-1.826l10.553,4.846l0.848,1.826L180.072,595.727z M171.671,602.668
			c-0.172-0.078-0.323-0.188-0.457-0.322c-0.13-0.137-0.236-0.287-0.312-0.453c-0.076-0.16-0.12-0.326-0.127-0.496
			c-0.011-0.172,0.023-0.334,0.096-0.488c0.062-0.137,0.154-0.258,0.278-0.354c0.123-0.1,0.257-0.172,0.411-0.219
			c0.151-0.045,0.313-0.066,0.484-0.057c0.172,0.014,0.34,0.057,0.504,0.131c0.172,0.08,0.323,0.186,0.453,0.316
			c0.131,0.131,0.23,0.273,0.303,0.432c0.068,0.154,0.109,0.32,0.116,0.492c0.007,0.17-0.021,0.328-0.089,0.477
			c-0.063,0.141-0.154,0.26-0.274,0.357c-0.117,0.098-0.255,0.174-0.402,0.229c-0.15,0.053-0.312,0.076-0.48,0.072
			C172.004,602.781,171.835,602.744,171.671,602.668z M177.738,597.188c-0.813-0.109-1.593-0.158-2.341-0.15
			s-1.521,0.059-2.316,0.154c0.662,0.684,1.215,1.414,1.654,2.189c0.439,0.779,0.724,1.605,0.858,2.484L177.738,597.188z"/>
		<path fill="#EC2227" d="M195.646,603.967c0.175-0.783,0.401-1.559,0.673-2.324c0.271-0.766,0.569-1.582,0.896-2.451l0.648,0.865
			l0.048,0.18c-0.041,0.141-0.068,0.256-0.079,0.354c-0.01,0.092-0.003,0.182,0.024,0.26c0.021,0.082,0.062,0.168,0.116,0.248
			c0.056,0.082,0.134,0.174,0.237,0.277l0.666,0.244l0.483,0.178l0.938,1.732l-2.691-0.984l-3.702,10.125
			c-0.183-0.211-0.323-0.389-0.419-0.537c-0.1-0.143-0.182-0.281-0.254-0.408c-0.068-0.127-0.138-0.256-0.202-0.387
			c-0.065-0.131-0.135-0.268-0.203-0.42c0.364-0.934,0.693-1.766,0.992-2.504c0.123-0.313,0.243-0.621,0.36-0.928
			c0.12-0.301,0.227-0.576,0.319-0.816c0.092-0.24,0.168-0.432,0.223-0.584c0.055-0.15,0.082-0.232,0.089-0.246
			c0.038-0.109,0.056-0.262,0.045-0.453c-0.007-0.191-0.038-0.398-0.082-0.611c-0.048-0.215-0.106-0.426-0.179-0.627
			c-0.075-0.199-0.151-0.361-0.236-0.479l-5.035,1.971l-1.712-1.328c0.168-0.076,0.302-0.131,0.401-0.164
			c0.096-0.035,0.186-0.068,0.274-0.104c0.082-0.027,0.168-0.059,0.25-0.09c0.083-0.031,0.162-0.061,0.244-0.092
			c0.165-0.072,0.306-0.15,0.419-0.24s0.191-0.199,0.24-0.33c0.037-0.109,0.068-0.219,0.086-0.332c0.017-0.117,0.017-0.227,0-0.33
			c-0.018-0.105-0.056-0.195-0.113-0.277c-0.059-0.08-0.145-0.141-0.254-0.18c-0.104-0.041-0.22-0.061-0.347-0.068
			c-0.127-0.006-0.269-0.01-0.43-0.01c-0.075,0.004-0.15,0.004-0.227,0c-0.075,0-0.144-0.004-0.209-0.004
			c-0.072-0.006-0.147-0.014-0.22-0.023c-0.068-0.01-0.137-0.031-0.206-0.055c-0.123-0.045-0.233-0.121-0.333-0.221
			c-0.096-0.1-0.178-0.215-0.24-0.34c-0.062-0.127-0.103-0.254-0.116-0.383c-0.014-0.131-0.004-0.244,0.034-0.348
			c0.041-0.113,0.1-0.209,0.182-0.291c0.079-0.082,0.165-0.158,0.258-0.217c0.37-0.268,0.759-0.49,1.163-0.67
			c0.405-0.182,0.827-0.309,1.263-0.377c0.437-0.072,0.89-0.082,1.355-0.037c0.467,0.051,0.944,0.16,1.435,0.34
			c0.471,0.172,0.886,0.4,1.246,0.686c0.364,0.289,0.666,0.604,0.92,0.961c0.25,0.354,0.446,0.73,0.594,1.137
			c0.144,0.404,0.243,0.816,0.299,1.238c0.007,0.068,0.017,0.145,0.03,0.227C195.618,603.797,195.632,603.881,195.646,603.967z
			 M189.646,601.072c0.195,0.086,0.371,0.211,0.525,0.371c0.15,0.162,0.271,0.344,0.36,0.535c0.089,0.199,0.144,0.402,0.168,0.611
			s0,0.402-0.065,0.584l3.017-1.141c-0.134-0.264-0.313-0.49-0.535-0.686c-0.227-0.195-0.48-0.344-0.769-0.449
			c-0.505-0.186-0.981-0.271-1.438-0.258C190.453,600.65,190.031,600.795,189.646,601.072z"/>
		<path fill="#EC2227" d="M193.524,612.684c-0.031-0.135-0.062-0.258-0.089-0.367c-0.027-0.113-0.052-0.199-0.072-0.266
			c-0.113-0.436-0.213-0.799-0.302-1.094c-0.093-0.295-0.224-0.549-0.395-0.766c-0.176-0.209-0.405-0.398-0.7-0.563
			c-0.292-0.166-0.69-0.334-1.198-0.506c-0.494-0.164-0.984-0.314-1.476-0.449c-0.487-0.129-0.978-0.277-1.472-0.445
			c-0.512-0.172-0.976-0.412-1.387-0.715c-0.412-0.301-0.752-0.648-1.013-1.043c-0.261-0.391-0.433-0.813-0.508-1.27
			c-0.079-0.449-0.041-0.912,0.12-1.387c0.089-0.273,0.199-0.559,0.326-0.854c0.12-0.295,0.288-0.621,0.501-0.979l0.639,1.098
			c-0.093,0.08-0.158,0.148-0.203,0.213c-0.044,0.066-0.075,0.131-0.096,0.199c-0.134,0.395-0.154,0.742-0.065,1.033
			c0.089,0.299,0.265,0.559,0.521,0.797c0.258,0.232,0.58,0.449,0.972,0.648c0.388,0.191,0.82,0.391,1.29,0.586
			c0.467,0.193,0.943,0.395,1.431,0.598s0.947,0.432,1.384,0.689c0.442,0.264,0.841,0.566,1.194,0.902
			c0.356,0.336,0.631,0.73,0.827,1.191c0.105,0.25,0.195,0.477,0.271,0.672c0.072,0.193,0.141,0.381,0.195,0.561
			c0.056,0.178,0.1,0.35,0.131,0.514c0.031,0.168,0.048,0.35,0.059,0.547l-0.45,1.328c-0.137-0.18-0.233-0.34-0.291-0.479
			C193.613,612.938,193.563,612.803,193.524,612.684z"/>
		<path fill="#EC2227" d="M207.434,605.678l-3.422,10.852c-0.089-0.229-0.147-0.373-0.175-0.426c-0.021-0.057-0.041-0.088-0.055-0.1
			c-0.018-0.02-0.055-0.047-0.11-0.078c-0.058-0.035-0.112-0.072-0.164-0.123c-0.055-0.053-0.1-0.123-0.134-0.23
			c-0.031-0.104-0.041-0.217-0.031-0.332c0.004-0.059,0.004-0.121,0.011-0.186c0.003-0.066,0.01-0.141,0.021-0.217
			c0.007-0.141,0.017-0.285,0.017-0.443c0.007-0.15-0.003-0.305-0.034-0.455c-0.116-0.648-0.326-1.213-0.631-1.695
			c-0.306-0.48-0.684-0.941-1.13-1.373c-0.363-0.367-0.765-0.701-1.201-0.988c-0.442-0.295-0.926-0.543-1.455-0.746l-0.961-2.471
			c1.328-0.346,2.64-0.6,3.934-0.764c1.297-0.17,2.615-0.234,3.946-0.203l0.151-0.475l-7.324-2.305l-1.009-1.689l11.432,3.604
			l1.016,1.691L207.434,605.678z M205.269,607.572c-0.776,0.008-1.545,0.059-2.3,0.162c-0.759,0.096-1.514,0.23-2.265,0.395
			c0.707,0.576,1.324,1.207,1.856,1.898c0.528,0.686,0.94,1.428,1.231,2.227L205.269,607.572z"/>
		<path fill="#EC2227" d="M211.686,606.877l-3.026,10.627c-0.052-0.014-0.138-0.1-0.258-0.258c-0.116-0.16-0.243-0.336-0.378-0.521
			c-0.15-0.219-0.315-0.469-0.497-0.75l2.179-7.65c0.083-0.295,0.134-0.572,0.148-0.83c0.017-0.262-0.015-0.494-0.1-0.693
			c-0.086-0.203-0.227-0.375-0.423-0.512c-0.191-0.137-0.456-0.232-0.789-0.295l-0.848-1.633c0.172,0.064,0.309,0.113,0.419,0.146
			c0.106,0.039,0.199,0.063,0.274,0.086c0.079,0.021,0.145,0.037,0.202,0.051c0.056,0.012,0.12,0.029,0.189,0.049
			c0.284,0.082,0.528,0.182,0.734,0.299c0.202,0.119,0.374,0.258,0.511,0.418c0.138,0.162,0.247,0.352,0.33,0.566
			c0.082,0.213,0.147,0.461,0.198,0.742c0.018-0.141,0.035-0.299,0.052-0.477c0.018-0.184,0.041-0.396,0.072-0.639
			c0.027-0.248,0.065-0.533,0.113-0.859c0.048-0.322,0.103-0.703,0.172-1.139l0.617,0.762c-0.021,0.18-0.027,0.32-0.027,0.412
			c0.007,0.092,0.021,0.176,0.048,0.244c0.024,0.059,0.065,0.141,0.124,0.254c0.027,0.041,0.058,0.088,0.089,0.133
			c0.031,0.053,0.062,0.107,0.093,0.172l1.747,0.498l1.081,1.668L211.686,606.877z"/>
		<path fill="#EC2227" d="M223.265,609.914l-2.656,10.469c-0.045-0.01-0.127-0.098-0.244-0.268c-0.123-0.168-0.25-0.35-0.384-0.549
			c-0.154-0.229-0.322-0.49-0.508-0.785l1.204-4.746c0.027-0.104-0.003-0.227-0.082-0.377c-0.079-0.152-0.186-0.299-0.319-0.447
			c-0.13-0.146-0.274-0.277-0.433-0.398c-0.157-0.115-0.295-0.191-0.418-0.219c-0.176-0.045-0.354-0.045-0.536-0.004
			c-0.178,0.041-0.367,0.121-0.556,0.234c-0.103,0.055-0.202,0.113-0.295,0.182c-0.097,0.068-0.192,0.137-0.292,0.213
			c-0.1,0.072-0.195,0.15-0.292,0.24c-0.096,0.082-0.191,0.168-0.295,0.246c-0.206,0.182-0.419,0.35-0.635,0.512
			c-0.213,0.162-0.429,0.303-0.646,0.416c-0.216,0.115-0.438,0.195-0.662,0.24c-0.227,0.047-0.456,0.037-0.683-0.018
			c-0.052-0.014-0.131-0.035-0.224-0.059c-0.096-0.023-0.191-0.055-0.288-0.096c-0.103-0.039-0.192-0.082-0.271-0.139
			c-0.083-0.051-0.145-0.105-0.186-0.168c-0.179-0.086-0.337-0.242-0.464-0.469c-0.127-0.23-0.243-0.461-0.346-0.701
			c-0.1-0.268-0.196-0.527-0.275-0.789c-0.075-0.26-0.147-0.486-0.216-0.684l1.294-0.627c-0.021,0.168-0.018,0.346,0.007,0.545
			c0.021,0.195,0.062,0.381,0.12,0.549c0.059,0.172,0.13,0.32,0.22,0.443c0.086,0.123,0.178,0.199,0.284,0.227
			c0.072,0.018,0.151,0.01,0.251-0.018c0.096-0.027,0.202-0.072,0.326-0.127c0.116-0.061,0.24-0.131,0.367-0.213
			c0.127-0.078,0.257-0.16,0.391-0.25c0.254-0.168,0.487-0.332,0.697-0.498c0.213-0.16,0.356-0.273,0.442-0.336
			c0.059-0.439,0.072-0.799,0.034-1.084c-0.034-0.289-0.109-0.52-0.223-0.701c-0.113-0.178-0.254-0.318-0.422-0.418
			c-0.172-0.1-0.351-0.186-0.546-0.258c-0.104-0.037-0.206-0.078-0.315-0.109c-0.11-0.035-0.22-0.072-0.333-0.117
			c-0.237-0.072-0.467-0.164-0.684-0.271c-0.223-0.109-0.429-0.256-0.617-0.436c-0.188-0.178-0.344-0.414-0.467-0.707
			c-0.082-0.055-0.179-0.145-0.292-0.264c-0.109-0.119-0.216-0.254-0.319-0.402c-0.116-0.146-0.227-0.309-0.34-0.477
			c-0.109-0.172-0.243-0.354-0.395-0.559l13.106,3.324l1.143,1.639L223.265,609.914z M221.803,609.543l-4.743-1.205
			c0.154,0.199,0.295,0.391,0.426,0.59c0.127,0.193,0.227,0.395,0.295,0.602c0.072,0.201,0.106,0.414,0.113,0.631
			s-0.034,0.447-0.13,0.684c0.123-0.039,0.254-0.082,0.391-0.123c0.134-0.043,0.271-0.08,0.401-0.104
			c0.135-0.027,0.262-0.045,0.385-0.053c0.124-0.01,0.237,0,0.336,0.025c0.24,0.061,0.464,0.199,0.67,0.408
			c0.199,0.209,0.374,0.439,0.524,0.682c0.106,0.158,0.203,0.324,0.289,0.488c0.089,0.164,0.175,0.33,0.25,0.498L221.803,609.543z"
			/>
		<path fill="#EC2227" d="M227.383,610.822l-2.364,10.539c-0.045-0.01-0.134-0.088-0.268-0.236c-0.127-0.15-0.269-0.309-0.416-0.484
			c-0.164-0.205-0.343-0.441-0.545-0.703l2.12-9.443l-1.393-0.313l-1.291-1.631l3.085,0.693c-0.034-0.756-0.188-1.42-0.466-2.012
			c-0.282-0.582-0.666-1.098-1.157-1.537c-0.487-0.439-1.067-0.813-1.739-1.119c-0.677-0.305-1.418-0.549-2.231-0.727
			c-0.1-0.023-0.243-0.055-0.438-0.09c-0.192-0.037-0.405-0.068-0.643-0.096c-0.233-0.027-0.477-0.051-0.728-0.064
			c-0.254-0.014-0.483-0.012-0.692,0.01c-0.21,0.018-0.389,0.061-0.536,0.127c-0.147,0.064-0.233,0.154-0.261,0.277
			c-0.03,0.135,0.027,0.24,0.175,0.32c0.151,0.078,0.344,0.154,0.58,0.24c0.285,0.1,0.611,0.188,0.979,0.277
			c0.367,0.082,0.741,0.186,1.129,0.299c0.385,0.113,0.762,0.254,1.129,0.412c0.367,0.156,0.687,0.354,0.961,0.586
			c0.274,0.227,0.474,0.502,0.604,0.824c0.13,0.322,0.147,0.703,0.048,1.146c-0.027,0.113-0.059,0.223-0.1,0.332
			c-0.041,0.113-0.106,0.236-0.195,0.381l-1.768-0.398c0.333-0.137,0.583-0.25,0.744-0.342c0.162-0.098,0.255-0.199,0.282-0.313
			c0.062-0.268-0.179-0.508-0.721-0.721c-0.271-0.117-0.587-0.225-0.944-0.322c-0.356-0.1-0.717-0.203-1.088-0.324
			c-0.367-0.109-0.734-0.242-1.095-0.395c-0.36-0.15-0.676-0.328-0.947-0.541c-0.271-0.213-0.474-0.465-0.607-0.752
			c-0.137-0.291-0.161-0.635-0.071-1.029c0.055-0.252,0.188-0.453,0.401-0.619c0.216-0.16,0.474-0.291,0.775-0.383
			c0.302-0.098,0.635-0.158,0.999-0.193c0.363-0.037,0.713-0.051,1.06-0.047c0.347,0.002,0.67,0.023,0.972,0.055
			c0.306,0.033,0.553,0.072,0.744,0.113c0.505,0.117,1.003,0.281,1.486,0.5c0.487,0.225,0.951,0.453,1.396,0.697
			c0.591,0.318,1.081,0.697,1.476,1.129c0.396,0.436,0.714,0.902,0.961,1.4c0.244,0.504,0.433,1.025,0.56,1.568
			c0.131,0.543,0.22,1.08,0.265,1.617l2.072,0.467l1.174,1.602L227.383,610.822z"/>
		<path fill="#EC2227" d="M246.131,617.096l-1.41,8.203l-0.697-0.883c-0.021-0.336-0.059-0.639-0.113-0.906
			s-0.144-0.494-0.274-0.689c-0.134-0.191-0.313-0.35-0.546-0.48c-0.233-0.123-0.542-0.219-0.92-0.289
			c-0.552-0.092-1.104-0.15-1.671-0.17c-0.563-0.021-1.119-0.08-1.678-0.172c-0.659-0.113-1.25-0.299-1.774-0.553
			c-0.519-0.25-0.954-0.57-1.301-0.947c-0.343-0.381-0.587-0.816-0.731-1.314c-0.141-0.502-0.161-1.051-0.055-1.65
			c0.045-0.279,0.11-0.539,0.192-0.793c0.086-0.248,0.192-0.49,0.326-0.721c0.127-0.23,0.288-0.461,0.48-0.68
			c0.188-0.219,0.408-0.445,0.662-0.672l0.501,0.791c-0.144,0.125-0.268,0.27-0.384,0.438c-0.11,0.17-0.206,0.346-0.292,0.523
			c-0.082,0.18-0.151,0.365-0.206,0.551c-0.055,0.184-0.1,0.354-0.127,0.51c-0.062,0.365-0.031,0.697,0.096,1
			c0.124,0.299,0.306,0.559,0.557,0.781c0.25,0.225,0.549,0.408,0.905,0.561c0.351,0.146,0.725,0.254,1.119,0.322
			c0.326,0.055,0.655,0.092,0.988,0.105c0.333,0.018,0.666,0.053,0.999,0.111c0.377,0.064,0.71,0.137,0.991,0.215
			c0.278,0.08,0.536,0.18,0.769,0.295c0.23,0.113,0.45,0.258,0.656,0.426c0.202,0.168,0.422,0.371,0.642,0.611l1.235-7.199
			c0.007-0.035,0-0.063-0.021-0.08c-0.021-0.023-0.068-0.041-0.145-0.055c-0.313-0.051-0.648-0.023-1.009,0.09
			c-0.363,0.113-0.717,0.271-1.063,0.477c-0.347,0.203-0.663,0.439-0.958,0.699c-0.291,0.262-0.524,0.52-0.693,0.77
			c0.127-0.006,0.269,0.004,0.423,0.031c0.202,0.033,0.374,0.104,0.511,0.209c0.138,0.104,0.244,0.223,0.323,0.361
			c0.071,0.137,0.123,0.283,0.15,0.438c0.024,0.156,0.024,0.303,0,0.443c-0.041,0.244-0.127,0.443-0.257,0.602
			c-0.131,0.15-0.292,0.27-0.474,0.359c-0.189,0.086-0.398,0.137-0.628,0.154c-0.23,0.014-0.46,0.004-0.69-0.033
			c-0.343-0.063-0.635-0.168-0.875-0.32c-0.24-0.15-0.433-0.34-0.573-0.559c-0.144-0.217-0.236-0.457-0.284-0.717
			c-0.049-0.258-0.049-0.525,0.003-0.805c0.055-0.336,0.188-0.672,0.395-1.002c0.21-0.328,0.467-0.637,0.772-0.93
			c0.306-0.291,0.652-0.555,1.04-0.793c0.388-0.236,0.789-0.432,1.208-0.586c0.415-0.154,0.837-0.262,1.263-0.32
			c0.426-0.061,0.83-0.055,1.218,0.012c0.076,0.014,0.176,0.047,0.292,0.102c0.117,0.057,0.237,0.125,0.36,0.211
			c0.12,0.082,0.24,0.174,0.357,0.281c0.12,0.1,0.223,0.213,0.315,0.332c0.106,0.154,0.188,0.309,0.24,0.475
			c0.052,0.168,0.082,0.322,0.1,0.469c0.017,0.125,0.027,0.238,0.03,0.336c0.004,0.1,0.004,0.189,0.011,0.27
			c0.278,0,0.525-0.049,0.748-0.145c0.216-0.094,0.351-0.271,0.395-0.535c0.059-0.338,0-0.646-0.179-0.916
			c-0.171-0.275-0.436-0.533-0.785-0.777c-0.179-0.127-0.371-0.246-0.573-0.355c-0.202-0.113-0.422-0.227-0.648-0.34
			c-0.233-0.117-0.471-0.23-0.711-0.34c-0.243-0.107-0.487-0.221-0.737-0.34c-0.491-0.213-0.975-0.447-1.448-0.693
			c-0.478-0.244-0.899-0.518-1.263-0.816c-0.368-0.303-0.649-0.635-0.848-1.006c-0.196-0.371-0.251-0.793-0.172-1.256
			c0.034-0.195,0.116-0.379,0.243-0.539c0.127-0.162,0.278-0.309,0.457-0.436c0.178-0.131,0.37-0.248,0.576-0.354
			c0.202-0.104,0.401-0.199,0.591-0.281l0.728,0.844c-0.151,0.059-0.275,0.104-0.364,0.131c-0.089,0.031-0.175,0.059-0.258,0.086
			c-0.068,0.023-0.141,0.047-0.216,0.072c-0.075,0.027-0.151,0.055-0.22,0.092c-0.137,0.068-0.25,0.141-0.336,0.223
			s-0.141,0.186-0.161,0.309c-0.031,0.189,0.041,0.371,0.216,0.543c0.179,0.172,0.46,0.359,0.852,0.559
			c0.374,0.197,0.799,0.395,1.279,0.588c0.478,0.201,0.972,0.414,1.473,0.648c0.504,0.23,0.991,0.49,1.476,0.775
			c0.483,0.285,0.902,0.607,1.256,0.971c0.357,0.365,0.625,0.775,0.803,1.24c0.183,0.463,0.22,0.984,0.12,1.568
			c-0.062,0.35-0.164,0.648-0.312,0.889c-0.151,0.242-0.337,0.449-0.563,0.617c-0.223,0.172-0.48,0.313-0.765,0.43
			C246.776,616.908,246.467,617.006,246.131,617.096z"/>
		<path fill="#EC2227" d="M260.219,621.115c0.027-0.334-0.031-0.67-0.179-1.006c-0.145-0.334-0.351-0.631-0.614-0.898
			c-0.261-0.266-0.566-0.488-0.917-0.664c-0.35-0.178-0.713-0.277-1.091-0.309c-0.014,0-0.031-0.002-0.052-0.002
			c-0.017-0.008-0.044-0.008-0.079,0l-1.081,8.32c-0.062-0.006-0.134-0.037-0.212-0.088c-0.083-0.053-0.162-0.109-0.24-0.18
			c-0.083-0.07-0.179-0.156-0.275-0.25c-0.154-0.639-0.374-1.229-0.648-1.781c-0.277-0.553-0.628-1.049-1.047-1.492
			c-0.425-0.439-0.919-0.82-1.496-1.137c-0.569-0.314-1.231-0.563-1.977-0.734l-1.527-2.148c0.519-0.277,1.078-0.541,1.679-0.789
			c0.597-0.246,1.211-0.471,1.846-0.672c0.632-0.199,1.264-0.375,1.892-0.521c0.628-0.148,1.231-0.266,1.805-0.348l0.079-0.59
			l-7.228-0.939l-1.352-1.494l15.326,1.99l1.294,1.486l-6.545-0.852l-0.068,0.502l0.037,0.008c0.608,0.078,1.157,0.283,1.654,0.617
			c0.494,0.332,0.917,0.734,1.257,1.205c0.346,0.469,0.597,0.975,0.762,1.51c0.164,0.537,0.216,1.049,0.15,1.541
			c-0.034,0.256-0.113,0.508-0.233,0.754c-0.123,0.24-0.288,0.453-0.49,0.635c-0.199,0.18-0.439,0.32-0.718,0.416
			c-0.277,0.092-0.583,0.119-0.919,0.074c-0.21-0.027-0.412-0.088-0.611-0.188c-0.199-0.096-0.367-0.221-0.512-0.367
			c-0.141-0.148-0.254-0.309-0.325-0.494c-0.079-0.182-0.1-0.371-0.076-0.57c0.031-0.244,0.134-0.457,0.31-0.635
			c0.175-0.178,0.37-0.326,0.593-0.449c0.135-0.018,0.269-0.031,0.396-0.037c0.13-0.008,0.261-0.004,0.391,0.014
			c0.203,0.027,0.392,0.092,0.57,0.205C259.92,620.863,260.077,620.984,260.219,621.115z M255.784,618.119
			c-0.395,0.074-0.762,0.16-1.111,0.258c-0.347,0.096-0.693,0.201-1.026,0.318c-0.337,0.113-0.666,0.236-0.995,0.371
			c-0.326,0.137-0.662,0.277-1.006,0.426c0.759,0.432,1.438,0.934,2.032,1.51c0.597,0.576,1.087,1.225,1.479,1.941L255.784,618.119z
			"/>
		<path fill="#EC2227" d="M267.998,617.164c-0.751-0.078-1.304,0.045-1.661,0.367c-0.356,0.322-0.566,0.793-0.628,1.408
			c-0.044,0.449-0.048,0.898-0.01,1.355c0.034,0.455,0.086,0.916,0.15,1.375c0.056,0.461,0.104,0.92,0.145,1.381
			c0.041,0.459,0.034,0.922-0.011,1.387c-0.027,0.264-0.106,0.531-0.24,0.795c-0.134,0.266-0.302,0.52-0.504,0.76
			c-0.203,0.242-0.433,0.467-0.693,0.664c-0.265,0.199-0.539,0.375-0.831,0.516c-0.291,0.145-0.583,0.25-0.885,0.318
			c-0.299,0.072-0.587,0.094-0.858,0.066c-0.164-0.018-0.322-0.09-0.47-0.217c-0.151-0.123-0.217-0.271-0.199-0.443
			c0.011-0.088,0.072-0.16,0.188-0.219c0.117-0.059,0.261-0.096,0.439-0.121c0.062-0.014,0.131-0.023,0.199-0.029
			c0.065-0.008,0.13-0.014,0.199-0.021c0.062-0.018,0.116-0.027,0.161-0.037c0.045-0.008,0.075-0.018,0.089-0.031
			c0.261-0.131,0.48-0.262,0.666-0.389c0.182-0.127,0.333-0.264,0.449-0.414c0.117-0.152,0.21-0.322,0.278-0.516
			c0.065-0.191,0.113-0.426,0.141-0.695c0.018-0.18,0.021-0.354,0.011-0.523c-0.011-0.17-0.027-0.342-0.049-0.518
			c-0.021-0.178-0.048-0.357-0.082-0.531c-0.034-0.172-0.075-0.348-0.12-0.533c-0.072-0.359-0.137-0.721-0.199-1.08
			c-0.055-0.361-0.068-0.721-0.027-1.082c0.038-0.41,0.124-0.764,0.254-1.066c0.127-0.303,0.288-0.584,0.48-0.848
			c0.104-0.127,0.206-0.25,0.309-0.371c0.11-0.119,0.224-0.24,0.347-0.367c0.097-0.092,0.196-0.188,0.289-0.281
			c0.1-0.092,0.198-0.191,0.305-0.299l-3.133-0.318l-1.394-1.451l7.563,0.762c0.217,0.229,0.412,0.441,0.591,0.639
			c0.141,0.168,0.271,0.328,0.395,0.486c0.12,0.158,0.182,0.258,0.179,0.305L267.998,617.164z"/>
		<path fill="#EC2227" d="M284.378,620.336c-0.055-0.801-0.064-1.605-0.027-2.416c0.041-0.814,0.09-1.682,0.151-2.605l0.871,0.639
			l0.1,0.158c-0.003,0.145,0.007,0.264,0.024,0.359c0.021,0.094,0.052,0.172,0.1,0.248c0.045,0.068,0.106,0.137,0.186,0.199
			c0.071,0.061,0.175,0.131,0.305,0.199l0.704,0.041l0.518,0.027l1.397,1.389l-2.859-0.164l-0.617,10.766
			c-0.237-0.15-0.422-0.285-0.556-0.395c-0.138-0.109-0.258-0.217-0.36-0.318c-0.106-0.104-0.206-0.207-0.31-0.309
			c-0.1-0.107-0.206-0.225-0.315-0.348c0.082-0.998,0.154-1.891,0.227-2.688c0.027-0.332,0.052-0.662,0.079-0.988
			s0.051-0.617,0.068-0.871c0.021-0.258,0.031-0.463,0.041-0.625c0.011-0.164,0.014-0.246,0.014-0.264
			c0.011-0.117-0.021-0.264-0.082-0.447c-0.068-0.182-0.151-0.369-0.258-0.563c-0.106-0.188-0.223-0.373-0.354-0.545
			c-0.127-0.172-0.25-0.303-0.36-0.391l-4.255,3.342l-2.021-0.775c0.141-0.123,0.25-0.213,0.336-0.275
			c0.079-0.061,0.158-0.119,0.23-0.178c0.075-0.051,0.147-0.104,0.216-0.158c0.072-0.055,0.141-0.105,0.206-0.158
			c0.141-0.113,0.254-0.232,0.333-0.354c0.082-0.119,0.127-0.246,0.134-0.381c0.007-0.115,0.003-0.232-0.018-0.346
			c-0.014-0.117-0.044-0.221-0.092-0.316c-0.045-0.096-0.11-0.172-0.189-0.232c-0.079-0.059-0.175-0.094-0.291-0.098
			c-0.11-0.01-0.227,0.004-0.354,0.035c-0.124,0.031-0.262,0.072-0.412,0.113c-0.072,0.023-0.145,0.049-0.217,0.068
			c-0.071,0.018-0.141,0.037-0.205,0.053c-0.072,0.02-0.141,0.029-0.213,0.041c-0.072,0.01-0.145,0.014-0.217,0.01
			c-0.13-0.01-0.257-0.049-0.381-0.117c-0.12-0.068-0.233-0.154-0.329-0.254c-0.096-0.104-0.168-0.217-0.224-0.332
			c-0.051-0.121-0.071-0.238-0.064-0.348c0.007-0.117,0.034-0.227,0.089-0.328c0.052-0.104,0.113-0.197,0.182-0.283
			c0.278-0.359,0.587-0.686,0.924-0.977c0.336-0.293,0.703-0.533,1.098-0.725c0.398-0.195,0.827-0.336,1.291-0.43
			c0.456-0.088,0.946-0.115,1.469-0.088c0.501,0.029,0.964,0.127,1.393,0.297c0.426,0.17,0.811,0.385,1.153,0.652
			c0.344,0.268,0.642,0.574,0.899,0.92c0.254,0.344,0.47,0.707,0.645,1.098c0.028,0.063,0.059,0.131,0.093,0.207
			C284.307,620.182,284.344,620.256,284.378,620.336z M277.8,619.299c0.213,0.025,0.418,0.094,0.61,0.203
			c0.192,0.113,0.36,0.246,0.501,0.412c0.141,0.164,0.251,0.342,0.337,0.535c0.082,0.191,0.12,0.387,0.109,0.576l2.557-1.963
			c-0.202-0.213-0.436-0.381-0.71-0.502c-0.274-0.123-0.563-0.191-0.868-0.209c-0.532-0.031-1.017,0.027-1.452,0.168
			C278.451,618.664,278.091,618.922,277.8,619.299z"/>
		<path fill="#EC2227" d="M289.021,616.361c0,0.021,0.018,0.072,0.055,0.15c0.034,0.084,0.079,0.172,0.134,0.27
			c0.034,0.074,0.072,0.154,0.11,0.229c0.034,0.076,0.064,0.145,0.086,0.199l2.217,0.08l1.448,1.355l-3.25-0.113l-0.381,10.838
			c-0.106-0.094-0.21-0.184-0.31-0.271c-0.085-0.08-0.175-0.158-0.271-0.24c-0.093-0.08-0.179-0.158-0.258-0.23
			c-0.075-0.072-0.147-0.137-0.216-0.195c-0.068-0.063-0.127-0.121-0.182-0.18c-0.069-0.064-0.113-0.102-0.138-0.115
			c-0.007-0.014-0.018-0.025-0.021-0.035c-0.011-0.004-0.018-0.018-0.024-0.027c-0.017-0.018-0.023-0.027-0.023-0.033
			c-0.021-0.049-0.024-0.086-0.007-0.113l0.333-9.449l-1.686-0.059l-1.462-1.361l3.096,0.109c-0.082-0.078-0.165-0.154-0.251-0.232
			c-0.082-0.08-0.164-0.158-0.25-0.238c-0.127-0.133-0.24-0.277-0.333-0.426c-0.093-0.154-0.138-0.314-0.131-0.486
			c0.011-0.309,0.093-0.607,0.251-0.898c0.154-0.295,0.363-0.566,0.618-0.82c0.257-0.252,0.549-0.479,0.878-0.684
			s0.676-0.381,1.033-0.525c0.36-0.145,0.721-0.254,1.084-0.326c0.367-0.072,0.704-0.105,1.02-0.096
			c0.707,0.027,1.39,0.135,2.046,0.318c0.658,0.189,1.286,0.438,1.887,0.738c0.598,0.303,1.164,0.652,1.695,1.047
			c0.536,0.398,1.037,0.816,1.507,1.26l0.398,1.143c-1.02-0.783-1.953-1.393-2.797-1.832c-0.845-0.436-1.613-0.748-2.303-0.934
			c-0.69-0.186-1.308-0.264-1.854-0.236c-0.553,0.029-1.033,0.119-1.444,0.27c-0.412,0.148-0.766,0.344-1.058,0.578
			c-0.292,0.232-0.532,0.455-0.714,0.676c-0.186,0.223-0.322,0.418-0.404,0.59C289.066,616.225,289.021,616.328,289.021,616.361z"/>
		<path fill="#EC2227" d="M299.787,618.75l-0.175,10.756c-0.183-0.086-0.299-0.148-0.357-0.186
			c-0.058-0.037-0.109-0.078-0.157-0.121c-0.038-0.041-0.086-0.092-0.145-0.15s-0.134-0.137-0.227-0.236
			c-0.113-0.172-0.233-0.363-0.35-0.57c-0.117-0.209-0.251-0.428-0.396-0.666c-0.147-0.227-0.305-0.459-0.473-0.695
			c-0.169-0.238-0.364-0.467-0.591-0.691c-0.216-0.223-0.46-0.436-0.73-0.637c-0.271-0.203-0.58-0.385-0.924-0.547
			c-0.343-0.158-0.73-0.295-1.16-0.404c-0.432-0.109-0.912-0.182-1.448-0.221l-1.664-2.051c1.167-0.697,2.351-1.309,3.545-1.844
			c1.194-0.531,2.44-0.961,3.734-1.289l0.007-0.475l-7.286-0.117l-1.51-1.33l11.613,0.184l1.51,1.336L299.787,618.75z
			 M294.89,628.482c-0.192-0.004-0.37-0.041-0.549-0.109c-0.172-0.072-0.329-0.168-0.463-0.289
			c-0.138-0.115-0.244-0.254-0.319-0.404c-0.076-0.15-0.113-0.316-0.11-0.486c0.004-0.152,0.038-0.297,0.113-0.434
			c0.072-0.141,0.168-0.264,0.288-0.363c0.12-0.107,0.262-0.189,0.426-0.248c0.161-0.061,0.33-0.088,0.512-0.086
			c0.188,0.004,0.367,0.039,0.542,0.107c0.168,0.068,0.319,0.158,0.446,0.273c0.13,0.117,0.233,0.252,0.309,0.402
			s0.11,0.309,0.11,0.477c-0.004,0.152-0.038,0.295-0.106,0.434c-0.072,0.141-0.165,0.264-0.278,0.373
			c-0.116,0.107-0.254,0.193-0.412,0.262C295.24,628.455,295.071,628.486,294.89,628.482z M298.243,621.025
			c-0.793,0.23-1.527,0.498-2.207,0.807c-0.683,0.305-1.366,0.662-2.06,1.07c0.886,0.357,1.682,0.803,2.396,1.342
			c0.714,0.535,1.312,1.178,1.785,1.926L298.243,621.025z"/>
		<path fill="#EC2227" d="M310.134,618.672l0.117,10.84c-0.224-0.174-0.388-0.309-0.494-0.398c-0.106-0.096-0.206-0.178-0.292-0.264
			c-0.048-0.051-0.093-0.109-0.131-0.178c-0.041-0.063-0.078-0.127-0.12-0.199c-0.034-0.059-0.064-0.121-0.1-0.182
			c-0.027-0.063-0.064-0.121-0.105-0.176c-0.255-0.367-0.543-0.717-0.865-1.043c-0.322-0.332-0.68-0.629-1.077-0.902
			c-0.516-0.35-1.071-0.629-1.672-0.834s-1.246-0.313-1.936-0.318l-1.768-1.957c0.607-0.502,1.201-0.969,1.785-1.406
			c0.58-0.439,1.17-0.869,1.771-1.287c-0.182-0.08-0.35-0.135-0.515-0.168c-0.161-0.031-0.319-0.057-0.478-0.066
			c-0.195-0.01-0.397-0.014-0.601-0.004c-0.205,0.008-0.432,0.014-0.683,0.018c-0.419,0.004-0.734-0.031-0.94-0.1
			c-0.209-0.068-0.377-0.178-0.504-0.328c-0.031-0.031-0.059-0.07-0.086-0.104c-0.024-0.031-0.048-0.068-0.083-0.109
			c-0.023-0.035-0.048-0.072-0.064-0.113c-0.021-0.041-0.045-0.084-0.079-0.125c-0.048-0.078-0.104-0.16-0.165-0.246
			c-0.065-0.09-0.141-0.178-0.229-0.271c-0.086-0.096-0.179-0.186-0.278-0.268c-0.1-0.086-0.199-0.176-0.306-0.264
			c-0.109-0.094-0.227-0.189-0.35-0.293c-0.124-0.102-0.295-0.25-0.515-0.445l12.08-0.131l1.485,1.291L310.134,618.672z
			 M308.624,618.686l-4.077,0.045c0.237,0.154,0.453,0.297,0.652,0.432c0.199,0.131,0.388,0.268,0.576,0.404
			c0.186,0.139,0.374,0.285,0.57,0.439c0.195,0.154,0.411,0.33,0.648,0.52c0.134,0.115,0.277,0.225,0.436,0.328
			c0.151,0.107,0.319,0.209,0.491,0.309c0.127,0.08,0.25,0.162,0.374,0.238c0.123,0.078,0.243,0.156,0.363,0.24L308.624,618.686z
			 M308.672,623.082c-0.299-0.234-0.601-0.461-0.902-0.688s-0.611-0.443-0.927-0.645c-0.195,0.113-0.392,0.24-0.58,0.377
			c-0.192,0.141-0.377,0.289-0.556,0.449c-0.165,0.148-0.326,0.293-0.484,0.443c-0.161,0.15-0.312,0.295-0.459,0.439
			c0.329,0.119,0.676,0.281,1.036,0.484c0.356,0.201,0.714,0.422,1.067,0.662c0.35,0.24,0.687,0.494,1.005,0.762
			c0.316,0.268,0.594,0.525,0.834,0.775L308.672,623.082z"/>
		<path fill="#EC2227" d="M313.978,618.555l0.158,4.063c0.477-0.328,0.889-0.631,1.245-0.908c0.354-0.279,0.707-0.543,1.058-0.801
			c0.195-0.137,0.391-0.268,0.594-0.398c0.202-0.127,0.425-0.254,0.662-0.383c0.24-0.131,0.497-0.262,0.775-0.389
			s0.591-0.258,0.93-0.387l2.32,1.393c-0.449,0.826-0.813,1.664-1.095,2.508c-0.281,0.846-0.405,1.699-0.371,2.561
			c0.021,0.539,0.09,1.074,0.213,1.621c0.117,0.549,0.251,1.135,0.405,1.773l-1.163-0.436c-0.22-0.748-0.412-1.473-0.587-2.184
			c-0.172-0.707-0.274-1.434-0.302-2.189c-0.018-0.432-0.011-0.861,0.017-1.287c0.034-0.428,0.093-0.854,0.188-1.283
			c-0.494,0.195-0.971,0.439-1.417,0.725c-0.449,0.285-0.865,0.611-1.242,0.975c-0.381,0.363-0.721,0.766-1.022,1.205
			c-0.299,0.436-0.55,0.898-0.755,1.389l-1.874-1.564l-0.233-5.943l-1.568,0.061l-1.582-1.242l13.168-0.518l1.586,1.246
			L313.978,618.555z"/>
		<path fill="#EC2227" d="M334.645,623.898c-0.247,0.328-0.55,0.596-0.903,0.795s-0.734,0.316-1.143,0.352
			c-0.449,0.041-0.841,0.006-1.16-0.107c-0.322-0.105-0.628-0.332-0.916-0.672c-0.003-0.045-0.01-0.09-0.017-0.121
			c-0.007-0.037-0.018-0.072-0.028-0.102c-0.01-0.035-0.021-0.066-0.03-0.1c-0.014-0.035-0.027-0.066-0.045-0.1
			c-0.027-0.076-0.059-0.152-0.079-0.227c-0.023-0.08-0.037-0.152-0.041-0.23c-0.03-0.334,0.018-0.629,0.141-0.889
			c0.124-0.258,0.295-0.477,0.521-0.66c0.224-0.182,0.491-0.324,0.797-0.432c0.305-0.105,0.628-0.172,0.964-0.203
			c0.055-0.002,0.131-0.006,0.224-0.01c0.096-0.006,0.191-0.006,0.284,0c0.041-0.006,0.079-0.006,0.113,0
			c0.038,0.004,0.072,0.01,0.113,0.021c-0.059-0.307-0.15-0.566-0.281-0.779c-0.127-0.217-0.278-0.402-0.449-0.553
			c-0.169-0.15-0.36-0.268-0.57-0.357c-0.209-0.088-0.418-0.164-0.638-0.219c-0.244-0.055-0.48-0.096-0.707-0.127
			c-0.237-0.035-0.453-0.063-0.659-0.096c-0.186-0.025-0.363-0.057-0.535-0.098c-0.175-0.041-0.309-0.102-0.405-0.191
			c-0.137-0.064-0.254-0.135-0.35-0.221c-0.097-0.078-0.176-0.168-0.247-0.256c-0.034-0.045-0.069-0.09-0.1-0.127
			c-0.031-0.045-0.069-0.086-0.11-0.131c-0.075-0.1-0.147-0.178-0.223-0.24c-0.097-0.086-0.192-0.172-0.295-0.25
			c-0.1-0.076-0.21-0.152-0.326-0.225c-0.11-0.084-0.233-0.17-0.367-0.26s-0.323-0.223-0.566-0.402l12.529-1.088l1.644,1.17
			l-2.834,0.248l0.934,10.738c-0.056,0.004-0.131-0.018-0.23-0.063c-0.096-0.045-0.192-0.1-0.288-0.16
			c-0.113-0.066-0.236-0.148-0.36-0.248c-0.086-0.213-0.175-0.436-0.274-0.672s-0.209-0.463-0.337-0.676
			c-0.127-0.221-0.268-0.422-0.422-0.607c-0.161-0.193-0.336-0.352-0.528-0.471c-0.116-0.072-0.25-0.154-0.398-0.248
			c-0.15-0.092-0.309-0.188-0.47-0.281c-0.161-0.092-0.322-0.174-0.484-0.254C334.929,624,334.781,623.943,334.645,623.898z
			 M336.449,617.141l-5.027,0.439c0.292,0.176,0.576,0.346,0.861,0.518c0.281,0.172,0.56,0.357,0.827,0.553
			c0.329,0.24,0.628,0.502,0.896,0.779c0.268,0.281,0.477,0.598,0.614,0.947c0.113,0.295,0.227,0.613,0.34,0.957
			c0.113,0.348,0.172,0.684,0.175,1.014c0.34,0.26,0.666,0.527,0.981,0.799c0.316,0.268,0.625,0.545,0.924,0.834L336.449,617.141z"
			/>
		<path fill="#EC2227" d="M342.424,616.516l1.205,10.982c-0.055,0.006-0.165-0.041-0.337-0.145c-0.168-0.104-0.35-0.217-0.545-0.34
			c-0.224-0.146-0.471-0.314-0.745-0.508l-0.868-7.902c-0.031-0.311-0.089-0.588-0.172-0.832c-0.082-0.246-0.202-0.445-0.356-0.6
			c-0.154-0.158-0.347-0.262-0.58-0.316c-0.23-0.055-0.512-0.045-0.845,0.023l-1.399-1.189c0.182-0.008,0.329-0.014,0.442-0.021
			c0.113-0.01,0.209-0.02,0.288-0.027c0.075-0.01,0.145-0.018,0.202-0.027c0.059-0.01,0.124-0.02,0.192-0.027
			c0.299-0.035,0.563-0.035,0.797,0c0.232,0.035,0.442,0.1,0.631,0.195s0.36,0.23,0.519,0.398c0.157,0.168,0.313,0.375,0.467,0.611
			c-0.041-0.135-0.086-0.285-0.134-0.461c-0.052-0.174-0.11-0.381-0.176-0.617c-0.064-0.24-0.137-0.518-0.216-0.838
			c-0.079-0.318-0.168-0.689-0.274-1.121l0.861,0.473c0.048,0.176,0.093,0.307,0.134,0.393c0.034,0.082,0.079,0.156,0.134,0.213
			c0.045,0.043,0.113,0.102,0.209,0.182c0.042,0.029,0.086,0.061,0.138,0.092c0.045,0.037,0.093,0.076,0.147,0.127l1.806-0.199
			l1.63,1.137L342.424,616.516z"/>
		<path fill="#EC2227" d="M348.752,619.42c0.1,0.092,0.192,0.182,0.278,0.271c0.089,0.084,0.172,0.184,0.247,0.291
			c0.096,0.117,0.179,0.246,0.24,0.391c0.062,0.141,0.104,0.303,0.127,0.484c0.034,0.24,0.011,0.449-0.062,0.639
			c-0.075,0.186-0.188,0.346-0.333,0.484c-0.151,0.137-0.329,0.25-0.535,0.336c-0.21,0.082-0.43,0.145-0.673,0.178
			c-0.779,0.1-1.4,0-1.863-0.305c-0.467-0.303-0.741-0.801-0.838-1.486c-0.048-0.375-0.01-0.725,0.113-1.055
			c0.124-0.324,0.31-0.617,0.563-0.871c0.25-0.258,0.552-0.471,0.909-0.639c0.354-0.164,0.73-0.277,1.14-0.328
			c0.504-0.068,0.981-0.041,1.424,0.078c0.442,0.123,0.854,0.303,1.239,0.539c0.377,0.236,0.728,0.512,1.046,0.824
			c0.319,0.314,0.607,0.635,0.865,0.961l-0.652-4.895l-8.062,1.066l-1.664-1.094l12.352-1.641l1.712,1.092l-2.852,0.377
			l1.479,11.146l-0.862-0.758c0.004-0.076,0.004-0.141,0-0.189c-0.01-0.051-0.017-0.104-0.021-0.146
			c-0.044-0.334-0.144-0.715-0.295-1.146c-0.15-0.43-0.35-0.869-0.59-1.314c-0.244-0.443-0.521-0.875-0.841-1.297
			c-0.316-0.42-0.662-0.791-1.037-1.109c-0.377-0.316-0.771-0.559-1.19-0.727c-0.422-0.17-0.851-0.227-1.294-0.17L348.752,619.42z"
			/>
		<path fill="#EC2227" d="M363.608,613.486l1.85,11.225c-0.185-0.16-0.302-0.264-0.347-0.301c-0.048-0.039-0.078-0.059-0.096-0.063
			c-0.027-0.01-0.072-0.018-0.134-0.021c-0.065-0.002-0.134-0.014-0.202-0.033c-0.072-0.018-0.145-0.068-0.224-0.148
			c-0.075-0.074-0.137-0.172-0.178-0.281c-0.024-0.051-0.049-0.109-0.076-0.172c-0.023-0.059-0.052-0.127-0.079-0.199
			c-0.055-0.129-0.116-0.264-0.182-0.404c-0.065-0.137-0.144-0.268-0.236-0.391c-0.398-0.525-0.845-0.934-1.328-1.227
			c-0.491-0.287-1.04-0.527-1.631-0.717c-0.49-0.16-0.998-0.273-1.523-0.336c-0.521-0.064-1.067-0.068-1.63-0.01l-1.977-1.771
			c1.029-0.902,2.086-1.727,3.167-2.461c1.081-0.73,2.225-1.387,3.429-1.959l-0.082-0.488l-7.574,1.246l-1.661-1.049l11.826-1.947
			l1.668,1.051L363.608,613.486z M362.531,616.156c-0.69,0.355-1.349,0.752-1.98,1.18c-0.631,0.434-1.242,0.889-1.843,1.377
			c0.893,0.191,1.733,0.477,2.516,0.854c0.782,0.375,1.482,0.852,2.107,1.432L362.531,616.156z"/>
		<path fill="#EC2227" d="M377.552,615.535c-0.082-0.326-0.247-0.625-0.494-0.893s-0.538-0.488-0.871-0.648
			c-0.337-0.168-0.693-0.279-1.085-0.334c-0.388-0.055-0.765-0.033-1.129,0.066c-0.018,0-0.034,0.002-0.052,0.01
			c-0.021,0-0.044,0.01-0.075,0.023l1.678,8.227c-0.062,0.01-0.137,0.008-0.232-0.018c-0.09-0.02-0.186-0.051-0.282-0.088
			c-0.103-0.043-0.22-0.094-0.343-0.152c-0.354-0.553-0.752-1.043-1.19-1.473c-0.439-0.432-0.931-0.789-1.477-1.07
			c-0.542-0.281-1.136-0.477-1.78-0.59c-0.646-0.113-1.35-0.131-2.111-0.055l-2.141-1.535c0.401-0.432,0.848-0.863,1.331-1.293
			c0.487-0.426,0.995-0.838,1.527-1.234s1.074-0.764,1.62-1.105c0.549-0.344,1.08-0.646,1.596-0.914l-0.12-0.586l-7.139,1.455
			l-1.764-0.971l15.145-3.092l1.705,0.988l-6.469,1.316l0.104,0.494l0.034-0.006c0.601-0.123,1.19-0.107,1.768,0.047
			c0.576,0.158,1.102,0.402,1.578,0.734c0.478,0.334,0.879,0.729,1.212,1.182c0.325,0.457,0.538,0.922,0.642,1.406
			c0.051,0.258,0.059,0.52,0.021,0.789c-0.034,0.271-0.124,0.525-0.251,0.762c-0.134,0.234-0.319,0.447-0.549,0.625
			c-0.233,0.18-0.515,0.303-0.844,0.371c-0.21,0.041-0.423,0.051-0.639,0.021c-0.22-0.029-0.422-0.09-0.604-0.184
			c-0.185-0.092-0.339-0.209-0.47-0.359c-0.134-0.148-0.216-0.318-0.258-0.512c-0.048-0.244-0.021-0.477,0.086-0.703
			c0.106-0.223,0.247-0.432,0.419-0.621c0.124-0.059,0.243-0.113,0.364-0.162c0.116-0.047,0.239-0.086,0.374-0.113
			c0.198-0.041,0.401-0.037,0.601,0.008C377.188,615.396,377.377,615.459,377.552,615.535z M372.388,614.141
			c-0.347,0.199-0.67,0.398-0.968,0.602c-0.303,0.205-0.587,0.418-0.872,0.635c-0.281,0.219-0.553,0.443-0.816,0.676
			c-0.269,0.234-0.536,0.477-0.817,0.729c0.861,0.16,1.665,0.418,2.416,0.768c0.745,0.35,1.425,0.803,2.025,1.363L372.388,614.141z"
			/>
		<path fill="#EC2227" d="M388.727,607.965l2.648,10.652c-0.257-0.125-0.508-0.248-0.748-0.365c-0.202-0.1-0.397-0.195-0.594-0.291
			c-0.191-0.1-0.336-0.172-0.429-0.217l-1.421-5.713c-0.034-0.139-0.113-0.268-0.227-0.393c-0.116-0.123-0.254-0.227-0.415-0.309
			c-0.161-0.074-0.329-0.133-0.508-0.164c-0.179-0.035-0.35-0.031-0.512,0.006c-0.264,0.066-0.449,0.197-0.552,0.389
			c-0.104,0.189-0.12,0.404-0.065,0.645c0.027,0.113,0.068,0.221,0.116,0.32c0.031,0.059,0.063,0.115,0.09,0.178
			c0.023,0.059,0.062,0.141,0.113,0.24l-0.704,0.449c-0.116-0.258-0.288-0.477-0.501-0.658c-0.216-0.178-0.456-0.318-0.721-0.426
			c-0.264-0.104-0.546-0.168-0.837-0.199c-0.295-0.031-0.587-0.018-0.865,0.031c-0.601,0.09-1.074,0.299-1.417,0.621
			c-0.344,0.322-0.505,0.721-0.474,1.193c0.01,0.313,0.093,0.566,0.233,0.752c0.147,0.186,0.374,0.295,0.687,0.322
			c-0.083-0.074-0.151-0.16-0.206-0.254c-0.059-0.096-0.093-0.191-0.11-0.301c-0.078-0.371-0.003-0.703,0.217-1
			c0.223-0.295,0.542-0.494,0.954-0.596c0.254-0.066,0.504-0.063,0.734,0.01c0.233,0.068,0.439,0.176,0.621,0.322
			c0.182,0.145,0.333,0.316,0.456,0.508c0.124,0.199,0.206,0.389,0.251,0.576c0.058,0.217,0.034,0.426-0.059,0.625
			c-0.093,0.195-0.22,0.371-0.388,0.529s-0.357,0.291-0.569,0.4c-0.21,0.111-0.409,0.193-0.587,0.244
			c-0.573,0.154-1.071,0.207-1.5,0.154c-0.433-0.051-0.8-0.186-1.105-0.398c-0.312-0.213-0.563-0.494-0.748-0.848
			c-0.188-0.35-0.315-0.75-0.391-1.201c-0.056-0.354-0.049-0.703,0.017-1.049c0.068-0.344,0.203-0.666,0.401-0.959
			c0.199-0.291,0.46-0.551,0.79-0.771c0.322-0.223,0.707-0.387,1.159-0.5c0.543-0.135,1.03-0.148,1.47-0.039
			c0.432,0.113,0.848,0.293,1.242,0.539c0.023-0.141,0.075-0.285,0.161-0.439c0.082-0.15,0.179-0.291,0.299-0.428
			c0.116-0.135,0.239-0.252,0.381-0.348c0.137-0.1,0.271-0.164,0.397-0.195c0.23-0.059,0.453-0.072,0.666-0.049
			c0.213,0.027,0.412,0.08,0.601,0.154c0.192,0.084,0.37,0.186,0.539,0.311c0.171,0.123,0.322,0.254,0.463,0.391l-0.519-2.086
			l-8.994,2.232l-0.251-0.129c-0.071-0.035-0.157-0.08-0.257-0.121c-0.093-0.045-0.189-0.09-0.281-0.137
			c-0.093-0.045-0.183-0.094-0.271-0.135c-0.086-0.041-0.161-0.082-0.227-0.123c-0.038-0.01-0.068-0.023-0.096-0.037
			c-0.031-0.018-0.052-0.027-0.072-0.035l-0.024-0.006c-0.01,0-0.01,0-0.014-0.008c0.011-0.004,0.018,0,0.027,0.004
			c-0.014-0.041-0.007-0.078,0.011-0.121c0.017-0.037,0.068-0.055,0.15-0.047l-0.164-0.086l12.722-3.164
			c0.017-0.018,0.044-0.027,0.082-0.031c0.034,0,0.062,0.004,0.079,0.01c0.018,0.004,0.045,0.018,0.086,0.035
			c0.021,0.01,0.079,0.033,0.161,0.076c0.075,0.037,0.154,0.078,0.24,0.123c0.082,0.041,0.175,0.086,0.271,0.131
			c0.096,0.047,0.202,0.102,0.315,0.16c0.116,0.063,0.229,0.113,0.34,0.166c0.12,0.061,0.25,0.123,0.388,0.191L388.727,607.965z"/>
		<path fill="#EC2227" d="M395.085,606.158c-0.724,0.207-1.194,0.525-1.403,0.955c-0.216,0.428-0.24,0.943-0.075,1.537
			c0.127,0.436,0.288,0.857,0.49,1.27c0.203,0.408,0.415,0.816,0.646,1.223c0.22,0.408,0.433,0.816,0.642,1.23
			c0.206,0.412,0.374,0.842,0.494,1.291c0.075,0.258,0.096,0.531,0.072,0.83c-0.027,0.295-0.09,0.594-0.188,0.889
			c-0.1,0.303-0.233,0.594-0.405,0.875c-0.168,0.283-0.364,0.543-0.58,0.783s-0.453,0.449-0.707,0.625
			c-0.254,0.172-0.512,0.299-0.775,0.373c-0.158,0.045-0.333,0.035-0.515-0.027c-0.186-0.061-0.303-0.174-0.351-0.34
			c-0.021-0.086,0.011-0.178,0.097-0.27c0.089-0.1,0.209-0.189,0.367-0.275c0.051-0.037,0.109-0.072,0.171-0.104
			c0.059-0.031,0.12-0.061,0.176-0.092c0.055-0.035,0.1-0.068,0.141-0.094c0.034-0.023,0.062-0.043,0.072-0.064
			c0.191-0.217,0.35-0.418,0.473-0.6c0.124-0.189,0.213-0.371,0.265-0.553c0.059-0.182,0.079-0.379,0.072-0.58
			c-0.007-0.207-0.052-0.439-0.124-0.705c-0.051-0.17-0.113-0.332-0.182-0.486c-0.072-0.154-0.151-0.309-0.236-0.463
			c-0.083-0.162-0.179-0.316-0.268-0.463c-0.097-0.148-0.203-0.299-0.31-0.453c-0.199-0.311-0.395-0.619-0.583-0.934
			c-0.182-0.313-0.326-0.646-0.426-0.996c-0.109-0.398-0.161-0.758-0.151-1.084c0.007-0.33,0.056-0.648,0.138-0.965
			c0.045-0.154,0.096-0.309,0.154-0.459c0.052-0.152,0.113-0.307,0.182-0.471c0.059-0.121,0.11-0.244,0.169-0.367
			c0.055-0.121,0.113-0.25,0.171-0.389l-3.03,0.855l-1.829-0.844l7.316-2.063c0.285,0.133,0.543,0.26,0.783,0.377
			c0.188,0.104,0.374,0.205,0.542,0.305c0.175,0.104,0.268,0.176,0.278,0.225L395.085,606.158z"/>
		<path fill="#EC2227" d="M398.682,605.07l3.216,10.57c-0.052,0.018-0.172-0.006-0.357-0.078c-0.185-0.068-0.388-0.145-0.601-0.23
			c-0.247-0.104-0.521-0.227-0.826-0.359l-2.311-7.613c-0.089-0.291-0.198-0.553-0.325-0.781c-0.124-0.227-0.282-0.402-0.46-0.525
			c-0.182-0.123-0.395-0.193-0.628-0.203c-0.237-0.01-0.515,0.053-0.827,0.182l-1.596-0.912c0.178-0.037,0.318-0.076,0.429-0.104
			c0.109-0.031,0.202-0.059,0.281-0.082c0.075-0.02,0.138-0.041,0.192-0.064c0.055-0.018,0.12-0.039,0.188-0.063
			c0.285-0.082,0.542-0.133,0.775-0.145c0.237-0.01,0.46,0.018,0.659,0.076c0.202,0.059,0.398,0.158,0.584,0.295
			c0.185,0.137,0.374,0.309,0.565,0.516c-0.062-0.125-0.134-0.266-0.213-0.43c-0.082-0.162-0.178-0.35-0.284-0.572
			c-0.11-0.225-0.233-0.48-0.367-0.783c-0.134-0.299-0.295-0.652-0.474-1.055l0.93,0.311c0.079,0.156,0.147,0.281,0.202,0.355
			c0.052,0.08,0.11,0.141,0.172,0.182c0.052,0.039,0.131,0.084,0.24,0.145c0.048,0.025,0.097,0.045,0.151,0.068
			c0.052,0.021,0.109,0.057,0.168,0.094l1.736-0.529l1.813,0.814L398.682,605.07z"/>
		<path fill="#EC2227" d="M408.686,601.805l3.356,10.006l-0.172-0.082c0.048,0.059,0.059,0.1,0.027,0.135
			c-0.027,0.029-0.068,0.055-0.113,0.068c-0.003-0.008-0.003-0.008-0.017-0.004c-0.038-0.031-0.09-0.059-0.151-0.082
			c-0.065-0.035-0.147-0.072-0.233-0.117c-0.089-0.041-0.188-0.082-0.295-0.131c-0.104-0.041-0.206-0.086-0.302-0.127
			c-0.1-0.045-0.189-0.086-0.269-0.123c-0.096-0.049-0.191-0.09-0.277-0.123l-1.85-5.588c-0.113-0.34-0.303-0.658-0.57-0.963
			c-0.268-0.307-0.58-0.557-0.93-0.76c-0.356-0.195-0.741-0.328-1.153-0.391c-0.415-0.064-0.83-0.027-1.235,0.113
			c-0.264,0.086-0.497,0.219-0.696,0.404c-0.206,0.182-0.374,0.393-0.505,0.617c-0.13,0.227-0.213,0.471-0.25,0.725
			c-0.031,0.254-0.014,0.492,0.062,0.715c0.038,0.115,0.1,0.25,0.179,0.412c0.086,0.154,0.185,0.301,0.298,0.438
			c0.12,0.139,0.251,0.254,0.396,0.344c0.147,0.09,0.302,0.117,0.466,0.094c-0.021-0.094-0.051-0.18-0.082-0.252
			s-0.065-0.154-0.096-0.242c-0.059-0.176-0.072-0.334-0.045-0.471c0.027-0.135,0.089-0.258,0.175-0.367
			c0.09-0.109,0.203-0.203,0.34-0.281c0.141-0.08,0.288-0.148,0.446-0.199c0.206-0.068,0.415-0.096,0.625-0.082
			c0.205,0.01,0.401,0.061,0.579,0.141c0.179,0.078,0.337,0.188,0.471,0.326c0.134,0.133,0.229,0.291,0.288,0.473
			c0.086,0.25,0.089,0.488,0.014,0.721c-0.079,0.23-0.195,0.447-0.363,0.643c-0.165,0.195-0.364,0.367-0.591,0.514
			c-0.229,0.145-0.46,0.258-0.689,0.334c-0.484,0.164-0.958,0.229-1.407,0.201c-0.453-0.029-0.868-0.133-1.242-0.313
			c-0.374-0.178-0.7-0.418-0.979-0.73c-0.277-0.305-0.483-0.662-0.621-1.063c-0.164-0.488-0.229-0.973-0.206-1.453
			c0.028-0.477,0.148-0.926,0.364-1.344c0.213-0.424,0.525-0.801,0.923-1.133c0.401-0.334,0.899-0.598,1.489-0.797
			c0.269-0.09,0.525-0.141,0.776-0.15c0.247-0.014,0.494,0.006,0.734,0.055c0.236,0.051,0.47,0.123,0.689,0.219
			c0.216,0.096,0.433,0.207,0.639,0.336c0.209,0.127,0.411,0.271,0.604,0.42c0.188,0.15,0.367,0.301,0.539,0.457
			c0.052,0.037,0.1,0.078,0.144,0.123c0.045,0.041,0.09,0.086,0.138,0.127c-0.007-0.021-0.014-0.045-0.027-0.076
			c-0.011-0.033-0.031-0.086-0.055-0.15c-0.027-0.068-0.065-0.158-0.11-0.275c-0.048-0.113-0.113-0.26-0.202-0.439
			c-0.031-0.078-0.082-0.201-0.151-0.369c-0.064-0.17-0.147-0.365-0.24-0.584c-0.093-0.223-0.188-0.461-0.295-0.711
			c-0.103-0.25-0.199-0.498-0.295-0.738c-0.093-0.24-0.179-0.463-0.258-0.668c-0.079-0.203-0.137-0.371-0.182-0.506
			c0.315,0.152,0.542,0.266,0.683,0.34c0.134,0.076,0.247,0.145,0.33,0.203c0.086,0.051,0.161,0.104,0.223,0.158
			c0.065,0.055,0.124,0.105,0.186,0.15c0.109,0.09,0.24,0.166,0.388,0.24c0.147,0.072,0.381,0.145,0.696,0.221l0.838-0.281
			l1.836,0.762L408.686,601.805z"/>
		<path fill="#EC2227" d="M419.276,597.771c0.651,0.135,1.29,0.309,1.915,0.531c0.624,0.225,1.249,0.498,1.88,0.828
			c-0.318,0.553-0.628,1.074-0.933,1.568c-0.303,0.498-0.604,0.998-0.893,1.5c0.377-0.035,0.769-0.035,1.167,0.002
			c0.397,0.035,0.792,0.098,1.181,0.186c0.388,0.09,0.765,0.199,1.132,0.334c0.371,0.133,0.707,0.285,1.02,0.453l-2.697-6.346
			c0.157-0.15,0.313-0.264,0.463-0.348c0.147-0.082,0.292-0.154,0.439-0.215c0.566-0.24,1.14-0.398,1.72-0.475
			c0.583-0.074,1.129-0.059,1.644,0.055s0.975,0.33,1.39,0.646c0.412,0.318,0.734,0.748,0.965,1.289
			c0.109,0.266,0.171,0.533,0.178,0.797s-0.044,0.516-0.144,0.748c-0.104,0.232-0.258,0.445-0.471,0.645
			c-0.206,0.199-0.474,0.365-0.792,0.502c-0.21,0.09-0.416,0.133-0.618,0.137c-0.202,0.008-0.395-0.023-0.569-0.092
			c-0.179-0.066-0.337-0.162-0.478-0.285c-0.137-0.131-0.247-0.281-0.315-0.449c-0.072-0.166-0.097-0.326-0.072-0.484
			c0.021-0.158,0.075-0.309,0.161-0.449c0.083-0.141,0.196-0.268,0.33-0.381s0.288-0.207,0.452-0.275
			c0.169-0.072,0.337-0.109,0.516-0.117c0.175-0.01,0.346,0.012,0.511,0.063l-0.113,0.248l-0.744-0.254l-0.282-0.09
			c0.12,0.006,0.233,0.014,0.337,0.018c0.096,0.002,0.182,0.014,0.254,0.02c0.123,0.008,0.223,0.014,0.299,0.018
			c0.071,0.006,0.134,0.014,0.178,0.014c0.059,0.004,0.1,0.006,0.117,0.01c0.017,0.004,0.038,0.008,0.055,0.008h0.052
			c0-0.045-0.007-0.08-0.018-0.104c-0.12-0.285-0.299-0.484-0.531-0.598c-0.233-0.113-0.491-0.172-0.783-0.172
			c-0.291,0-0.59,0.045-0.905,0.131c-0.313,0.082-0.614,0.189-0.906,0.309c-0.106,0.049-0.186,0.104-0.233,0.168l3.315,7.805
			l-0.924-0.232c-0.483-0.393-1.002-0.729-1.544-1.006c-0.542-0.281-1.105-0.488-1.692-0.615c-0.583-0.133-1.194-0.174-1.829-0.123
			c-0.638,0.049-1.297,0.209-1.977,0.473l-2.128-1.143c0.299-0.682,0.628-1.328,0.981-1.932c0.354-0.607,0.711-1.207,1.067-1.809
			c-0.157-0.037-0.319-0.064-0.477-0.09c-0.158-0.02-0.319-0.037-0.478-0.051c-0.518,0.168-0.998,0.275-1.438,0.326
			s-0.879,0.049-1.308-0.006c-0.433-0.049-0.875-0.145-1.328-0.285c-0.453-0.139-0.95-0.316-1.493-0.529l14.321-6.088l1.901,0.611
			L419.276,597.771z"/>
		<path fill="#EC2227" d="M431.414,592.346l4.781,9.959c-0.049,0.023-0.172,0.018-0.364-0.023c-0.195-0.041-0.405-0.086-0.628-0.137
			c-0.261-0.066-0.549-0.145-0.872-0.234l-3.441-7.168c-0.131-0.279-0.278-0.523-0.439-0.725c-0.158-0.207-0.337-0.357-0.539-0.449
			c-0.192-0.098-0.412-0.131-0.648-0.107c-0.237,0.027-0.498,0.127-0.789,0.307l-1.716-0.66c0.168-0.064,0.305-0.119,0.408-0.168
			c0.106-0.049,0.192-0.086,0.264-0.119c0.072-0.035,0.134-0.066,0.183-0.098c0.051-0.027,0.113-0.055,0.175-0.088
			c0.271-0.127,0.518-0.217,0.748-0.262c0.233-0.045,0.453-0.055,0.662-0.027c0.21,0.031,0.419,0.096,0.621,0.205
			c0.206,0.107,0.419,0.248,0.642,0.424c-0.078-0.117-0.175-0.244-0.277-0.393c-0.106-0.146-0.23-0.322-0.371-0.525
			c-0.144-0.201-0.302-0.438-0.48-0.713c-0.182-0.277-0.391-0.6-0.631-0.975l0.968,0.168c0.106,0.145,0.188,0.25,0.254,0.318
			c0.064,0.07,0.127,0.121,0.198,0.158c0.059,0.025,0.145,0.063,0.262,0.104c0.051,0.014,0.099,0.027,0.157,0.045
			c0.055,0.018,0.117,0.037,0.179,0.064l1.641-0.785l1.915,0.531L431.414,592.346z"/>
		<path fill="#EC2227" d="M438.467,588.732l1.421,2.635c0.093,0.168,0.216,0.293,0.367,0.367c0.154,0.08,0.313,0.072,0.48-0.016
			c0.034-0.021,0.065-0.066,0.093-0.135c0.03-0.068,0.068-0.158,0.106-0.268c0.044-0.131,0.089-0.271,0.13-0.426
			c0.045-0.15,0.09-0.309,0.138-0.467c0.051-0.172,0.103-0.344,0.164-0.514c0.059-0.17,0.12-0.324,0.186-0.461
			c0.065-0.141,0.131-0.26,0.196-0.357c0.068-0.1,0.137-0.168,0.205-0.205c0.199-0.109,0.419-0.154,0.656-0.145
			c0.243,0.01,0.483,0.063,0.73,0.158c0.247,0.092,0.487,0.217,0.728,0.373c0.233,0.158,0.449,0.32,0.652,0.492
			c0.199,0.174,0.374,0.346,0.528,0.525c0.151,0.174,0.265,0.324,0.329,0.453c0.292,0.535,0.48,1.072,0.566,1.615
			c0.089,0.543,0.059,1.064-0.086,1.564c-0.144,0.506-0.411,0.982-0.796,1.432c-0.388,0.449-0.906,0.852-1.558,1.201
			c-0.738,0.398-1.452,0.617-2.142,0.658c-0.69,0.041-1.346-0.047-1.974-0.26c-0.632-0.213-1.226-0.525-1.784-0.938
			c-0.563-0.412-1.088-0.865-1.582-1.365c-0.494-0.504-0.951-1.023-1.362-1.559c-0.416-0.535-0.786-1.037-1.116-1.496l1.14-0.068
			c0.233,0.367,0.521,0.738,0.854,1.111c0.337,0.377,0.714,0.73,1.119,1.064c0.408,0.332,0.841,0.631,1.301,0.889
			s0.937,0.445,1.431,0.572c0.491,0.125,0.985,0.168,1.486,0.135c0.497-0.037,0.984-0.182,1.462-0.439
			c0.363-0.199,0.696-0.449,0.988-0.758c0.295-0.307,0.528-0.639,0.696-0.996c0.172-0.357,0.265-0.717,0.285-1.092
			c0.017-0.369-0.065-0.727-0.247-1.066c-0.086-0.162-0.206-0.303-0.347-0.412c-0.141-0.117-0.306-0.205-0.491-0.268
			c-0.01,0.223-0.075,0.49-0.188,0.803c-0.116,0.309-0.254,0.617-0.422,0.92c-0.165,0.309-0.354,0.584-0.56,0.838
			c-0.209,0.25-0.408,0.428-0.601,0.531c-0.265,0.145-0.528,0.234-0.793,0.277c-0.261,0.039-0.511,0.039-0.748-0.014
			c-0.236-0.047-0.449-0.133-0.648-0.264c-0.192-0.131-0.35-0.295-0.463-0.494l-0.12-0.191l-1.737-3.227l-4.286,2.311l-1.897-0.461
			l9.836-5.305c-0.172-0.281-0.374-0.475-0.611-0.57c-0.243-0.096-0.521-0.059-0.841,0.113c-0.281,0.154-0.617,0.344-1.006,0.57
			c-0.388,0.219-0.785,0.455-1.194,0.699c-0.408,0.244-0.81,0.48-1.2,0.703c-0.392,0.23-0.729,0.42-1.013,0.574
			c-0.306,0.16-0.655,0.287-1.058,0.373c-0.397,0.086-0.796,0.121-1.19,0.096c-0.401-0.023-0.766-0.109-1.099-0.26
			c-0.336-0.15-0.59-0.381-0.755-0.686c-0.055-0.107-0.109-0.217-0.161-0.34c-0.055-0.125-0.096-0.254-0.123-0.389
			c-0.027-0.137-0.041-0.285-0.034-0.432c0.007-0.152,0.044-0.311,0.109-0.471l0.906-0.209c-0.055,0.227-0.083,0.408-0.072,0.545
			c0.007,0.135,0.034,0.254,0.089,0.357c0.147,0.273,0.323,0.439,0.525,0.5c0.202,0.063,0.422,0.072,0.659,0.027
			c0.257-0.047,0.518-0.143,0.785-0.277c0.138-0.063,0.271-0.127,0.405-0.195c0.134-0.072,0.261-0.141,0.385-0.209
			c0.206-0.109,0.467-0.258,0.775-0.443c0.313-0.186,0.632-0.373,0.957-0.572c0.326-0.199,0.646-0.393,0.951-0.574
			c0.309-0.182,0.566-0.328,0.775-0.439c0.408-0.219,0.827-0.369,1.256-0.445c0.433-0.076,0.845-0.078,1.232-0.018
			c0.391,0.068,0.751,0.207,1.081,0.412c0.329,0.209,0.597,0.486,0.803,0.838l1.349-0.729l1.949,0.434L438.467,588.732z"/>
		<path fill="#EC2227" d="M452.829,591.225c-0.21-0.035-0.412-0.111-0.618-0.221c-0.202-0.113-0.35-0.244-0.446-0.395
			c-0.093-0.154-0.141-0.322-0.141-0.508s0.038-0.371,0.106-0.549c0.068-0.18,0.165-0.35,0.295-0.508
			c0.127-0.158,0.271-0.289,0.433-0.389c0.113-0.072,0.237-0.131,0.371-0.172s0.274-0.051,0.408-0.023
			c0.322-0.035,0.597,0.008,0.823,0.123c0.23,0.113,0.416,0.285,0.557,0.512c0.147,0.24,0.227,0.49,0.236,0.752
			c0.007,0.26-0.038,0.514-0.127,0.768c-0.096,0.252-0.236,0.488-0.426,0.711c-0.191,0.223-0.411,0.412-0.658,0.566
			c-0.419,0.258-0.845,0.426-1.271,0.502c-0.425,0.072-0.844,0.074-1.256,0.006s-0.803-0.191-1.184-0.377s-0.731-0.404-1.058-0.658
			c-0.332-0.254-0.624-0.529-0.892-0.824s-0.491-0.588-0.67-0.879c-0.254-0.408-0.452-0.838-0.601-1.283
			c-0.15-0.449-0.254-0.914-0.309-1.383c-0.059-0.475-0.072-0.951-0.044-1.438c0.027-0.484,0.089-0.973,0.178-1.467l-2.872,1.781
			l-1.963-0.322l7.567-4.688c0.315,0.064,0.601,0.119,0.854,0.174c0.216,0.053,0.418,0.1,0.607,0.152
			c0.185,0.047,0.288,0.086,0.309,0.117c-0.344,0.211-0.635,0.432-0.879,0.662c-0.243,0.232-0.474,0.48-0.683,0.736
			c-0.508,0.625-0.879,1.232-1.105,1.83s-0.34,1.184-0.336,1.768c0.007,0.584,0.113,1.16,0.322,1.74
			c0.21,0.572,0.494,1.152,0.858,1.736c0.144,0.24,0.356,0.484,0.638,0.734c0.282,0.25,0.591,0.459,0.927,0.625
			c0.34,0.164,0.69,0.268,1.051,0.305S452.527,591.406,452.829,591.225z"/>
		<path fill="#EC2227" d="M455.698,581.154c0.055,0.039,0.116,0.08,0.182,0.123c0.065,0.045,0.12,0.098,0.161,0.152
			c0.079,0.109,0.12,0.236,0.124,0.373c0,0.139-0.021,0.275-0.069,0.408c-0.048,0.139-0.113,0.266-0.202,0.381
			c-0.089,0.121-0.186,0.221-0.288,0.293c-0.23,0.164-0.446,0.264-0.656,0.291c-0.205,0.027-0.401,0.01-0.583-0.047
			c-0.186-0.059-0.354-0.156-0.504-0.283c-0.155-0.133-0.285-0.273-0.392-0.424c-0.127-0.176-0.195-0.365-0.209-0.566
			c-0.008-0.199,0.027-0.398,0.109-0.588c0.075-0.195,0.188-0.377,0.329-0.549c0.145-0.172,0.303-0.316,0.474-0.439
			c0.141-0.104,0.296-0.178,0.471-0.232c0.164-0.053,0.343-0.084,0.528-0.086c0.186-0.008,0.367,0.002,0.549,0.033
			s0.354,0.08,0.515,0.139l-1.204-1.668l-4.949,3.578l-1.942-0.213l11.943-8.631l1.986,0.176l-5.827,4.215l2.225,3.074
			c0.123,0.172,0.257,0.205,0.401,0.092c0.137-0.268,0.24-0.541,0.298-0.82c0.069-0.281,0.113-0.568,0.145-0.861
			c0.034-0.301,0.052-0.604,0.052-0.912c0.007-0.305,0.01-0.635,0.023-0.992c0.392-0.014,0.772,0.031,1.144,0.127
			c0.37,0.096,0.714,0.23,1.039,0.402c0.323,0.174,0.618,0.373,0.882,0.6c0.269,0.227,0.491,0.467,0.67,0.719
			c0.374,0.514,0.628,1.057,0.765,1.619c0.134,0.559,0.145,1.119,0.031,1.668c-0.116,0.555-0.35,1.092-0.714,1.613
			c-0.356,0.523-0.848,1.004-1.455,1.443c-0.621,0.451-1.246,0.746-1.881,0.893c-0.638,0.148-1.266,0.193-1.887,0.139
			c-0.618-0.057-1.229-0.184-1.826-0.383c-0.594-0.201-1.153-0.424-1.688-0.676c-0.336-0.16-0.669-0.355-0.992-0.582
			c-0.325-0.227-0.645-0.471-0.957-0.729c-0.151-0.127-0.302-0.26-0.46-0.395c-0.158-0.137-0.322-0.277-0.494-0.426
			c-0.175-0.145-0.356-0.299-0.546-0.463c-0.192-0.162-0.397-0.336-0.621-0.521l1.895,0.182c0.36,0.322,0.748,0.635,1.17,0.93
			c0.419,0.303,0.854,0.563,1.305,0.787c0.46,0.229,0.927,0.408,1.414,0.549c0.49,0.137,0.988,0.205,1.489,0.201
			c0.497-0.002,1.009-0.086,1.517-0.242c0.512-0.154,1.02-0.42,1.523-0.779c0.351-0.254,0.666-0.561,0.944-0.92
			c0.277-0.357,0.49-0.73,0.635-1.123c0.141-0.391,0.202-0.785,0.188-1.18c-0.017-0.391-0.147-0.756-0.388-1.088
			c-0.12-0.168-0.261-0.313-0.419-0.439c-0.161-0.127-0.34-0.23-0.531-0.309c0.014,0.244-0.021,0.527-0.1,0.854
			c-0.083,0.322-0.192,0.648-0.33,0.973c-0.137,0.326-0.295,0.623-0.467,0.891c-0.178,0.271-0.354,0.471-0.531,0.602
			c-0.306,0.217-0.591,0.326-0.861,0.313c-0.269-0.008-0.525-0.072-0.766-0.193c-0.12-0.057-0.237-0.119-0.343-0.191
			c-0.11-0.068-0.213-0.141-0.319-0.219c-0.1-0.072-0.196-0.145-0.296-0.217c-0.092-0.076-0.195-0.141-0.291-0.195
			c-0.038-0.025-0.1-0.045-0.182-0.068c-0.079-0.018-0.176-0.039-0.282-0.063c-0.109-0.018-0.22-0.037-0.336-0.063
			C455.918,581.189,455.805,581.172,455.698,581.154z"/>
		<path fill="#EC2227" d="M468.921,566.979l7.21,8.016c-0.038,0.035-0.161,0.066-0.363,0.094c-0.203,0.023-0.426,0.051-0.663,0.068
			c-0.274,0.02-0.587,0.041-0.927,0.059l-4.354-4.994c-0.113-0.127-0.315-0.24-0.601-0.344c-0.288-0.102-0.601-0.17-0.93-0.215
			c-0.333-0.039-0.656-0.045-0.958-0.014c-0.309,0.027-0.535,0.109-0.68,0.242c-0.082,0.072-0.157,0.166-0.227,0.279
			c-0.068,0.113-0.123,0.227-0.168,0.342c-0.041,0.117-0.065,0.23-0.079,0.344c-0.01,0.109,0.007,0.203,0.052,0.275
			c0.237-0.041,0.474-0.076,0.704-0.107c0.236-0.027,0.47-0.045,0.703-0.041c0.25,0.004,0.497,0.039,0.73,0.109
			c0.233,0.072,0.437,0.207,0.614,0.398c0.33,0.367,0.478,0.738,0.446,1.113c-0.034,0.373-0.264,0.754-0.689,1.139
			c-0.306,0.273-0.628,0.439-0.975,0.494c-0.343,0.059-0.68,0.059-1.006,0c0.024,0.172,0.031,0.354,0.014,0.549
			c-0.014,0.191-0.051,0.385-0.109,0.572c-0.055,0.189-0.134,0.371-0.233,0.547c-0.103,0.174-0.227,0.326-0.371,0.463
			c-0.195,0.172-0.401,0.289-0.621,0.35c-0.216,0.066-0.429,0.08-0.635,0.053c-0.209-0.035-0.404-0.098-0.587-0.197
			c-0.182-0.096-0.34-0.219-0.474-0.367c-0.127-0.137-0.223-0.338-0.295-0.607c-0.072-0.268-0.113-0.549-0.123-0.85
			c-0.011-0.299,0.01-0.598,0.068-0.893c0.055-0.295,0.147-0.543,0.278-0.742c-0.319-0.115-0.594-0.172-0.827-0.156
			c-0.227,0.014-0.446,0.078-0.652,0.188c-0.117,0.059-0.23,0.127-0.34,0.213s-0.223,0.178-0.347,0.277
			c-0.113,0.107-0.233,0.213-0.35,0.324c-0.12,0.113-0.24,0.227-0.378,0.35c-0.021,0.033-0.055,0.061-0.103,0.074
			c-0.018,0.018-0.034,0.018-0.059,0.012c-0.021,0-0.038,0.004-0.052,0.006l-0.192,0.004l-0.545,0.01
			c-0.233-0.002-0.443-0.01-0.628-0.02c-0.189-0.014-0.285-0.025-0.285-0.027l0.216-0.199c0.104-0.09,0.192-0.172,0.268-0.248
			c0.083-0.078,0.172-0.16,0.268-0.26c0.097-0.096,0.199-0.195,0.306-0.303c0.237-0.244,0.512-0.518,0.824-0.826
			c0.209-0.207,0.449-0.371,0.721-0.494c0.274-0.127,0.556-0.213,0.848-0.258c0.291-0.045,0.58-0.053,0.864-0.018
			c0.285,0.035,0.549,0.107,0.789,0.223c-0.048-0.264-0.064-0.541-0.051-0.836c0.007-0.297,0.048-0.588,0.127-0.877
			c0.075-0.291,0.186-0.568,0.336-0.836c0.145-0.266,0.337-0.502,0.57-0.715c0.141-0.123,0.367-0.205,0.692-0.242
			c0.323-0.035,0.673-0.039,1.064-0.012c0.391,0.027,0.786,0.076,1.184,0.152c0.401,0.074,0.755,0.15,1.058,0.227
			c-0.275-0.244-0.539-0.484-0.797-0.725c-0.257-0.236-0.518-0.484-0.778-0.738c-0.258-0.254-0.532-0.521-0.813-0.799
			c-0.289-0.281-0.587-0.592-0.913-0.928c0.326-0.027,0.587-0.045,0.786-0.055c0.195-0.01,0.374-0.01,0.535,0.004
			c0.075,0.004,0.144,0.02,0.202,0.051s0.113,0.063,0.168,0.096c0.049,0.031,0.097,0.066,0.141,0.098
			c0.045,0.033,0.093,0.064,0.138,0.096c0.075,0.045,0.158,0.064,0.247,0.061c0.093-0.002,0.216-0.074,0.367-0.209l0.807-0.727
			l2.241-0.262L468.921,566.979z"/>
		<path fill="#EC2227" d="M475.328,565.344c0.134,0.004,0.261,0.012,0.388,0.018c0.12,0.01,0.25,0.027,0.377,0.055
			c0.151,0.027,0.296,0.072,0.433,0.137c0.141,0.066,0.281,0.158,0.422,0.279c0.183,0.158,0.306,0.332,0.374,0.521
			c0.065,0.189,0.09,0.381,0.069,0.584c-0.018,0.199-0.076,0.4-0.176,0.604c-0.099,0.199-0.226,0.391-0.388,0.576
			c-0.515,0.594-1.046,0.93-1.596,1.01c-0.552,0.078-1.088-0.111-1.609-0.564c-0.288-0.246-0.49-0.535-0.617-0.863
			c-0.124-0.326-0.176-0.666-0.158-1.023c0.024-0.359,0.106-0.721,0.265-1.078c0.154-0.359,0.363-0.695,0.631-1.004
			c0.336-0.385,0.714-0.678,1.122-0.883c0.412-0.205,0.841-0.344,1.284-0.416c0.442-0.074,0.885-0.1,1.331-0.078
			c0.446,0.027,0.879,0.076,1.283,0.146l-3.727-3.238l-5.337,6.139l-1.973,0.281l8.175-9.402l2.007-0.316l-1.891,2.17l8.487,7.377
			h-1.146c-0.045-0.057-0.09-0.109-0.127-0.141c-0.038-0.033-0.075-0.068-0.113-0.1c-0.251-0.219-0.58-0.438-0.979-0.662
			c-0.397-0.219-0.837-0.418-1.311-0.59c-0.478-0.176-0.975-0.316-1.489-0.418c-0.515-0.107-1.022-0.154-1.514-0.148
			c-0.491,0.014-0.947,0.094-1.373,0.244c-0.425,0.146-0.785,0.395-1.081,0.734L475.328,565.344z"/>
	</g>
	<polygon fill="#08A650" points="273.047,510.641 273.047,437.166 296.146,478.664 315.183,437.166 315.183,481.711 
		342.188,464.281 342.188,468.443 310.611,490.465 310.611,472.191 298.936,498.08 280.916,470.668 280.916,510.641 	"/>
	<path fill="#08A650" d="M355.029,560.701c0,7.719-7.386,13.975-16.497,13.975h-79.951c-9.111,0-16.496-6.256-16.496-13.975l0,0
		c0-7.719,7.385-13.975,16.496-13.975h79.951C347.644,546.727,355.029,552.982,355.029,560.701L355.029,560.701z"/>
	<g>
		<path fill="#FFFFFF" d="M261.659,557.488v3.83c-0.03,0-0.112,0.008-0.243,0.012c-0.134,0.006-0.271,0.016-0.419,0.027
			c-0.164,0.014-0.35,0.02-0.556,0.027v-1.373c0-0.104-0.027-0.217-0.086-0.33c-0.059-0.117-0.13-0.219-0.216-0.313
			c-0.086-0.092-0.183-0.168-0.285-0.223c-0.1-0.059-0.195-0.082-0.285-0.076c-0.268,0.027-0.474,0.084-0.61,0.158
			c-0.138,0.076-0.244,0.162-0.319,0.254c-0.038,0.049-0.072,0.096-0.096,0.145c-0.028,0.051-0.056,0.105-0.09,0.164
			c-0.023,0.053-0.048,0.107-0.079,0.162c-0.03,0.059-0.058,0.109-0.092,0.154c-0.031,0.041-0.097,0.117-0.189,0.223
			c-0.096,0.109-0.213,0.221-0.354,0.33c-0.137,0.113-0.291,0.213-0.463,0.303c-0.172,0.084-0.351,0.129-0.528,0.129
			c-0.258,0-0.48-0.078-0.673-0.236c-0.188-0.158-0.351-0.344-0.484-0.557c-0.13-0.215-0.233-0.432-0.305-0.654
			c-0.072-0.217-0.12-0.385-0.138-0.502l0.872-0.775c0.017,0.141,0.055,0.293,0.113,0.449c0.058,0.158,0.127,0.303,0.206,0.434
			c0.082,0.133,0.168,0.242,0.261,0.326c0.092,0.086,0.178,0.129,0.264,0.129c0.106,0,0.199-0.02,0.281-0.055
			c0.079-0.033,0.147-0.078,0.203-0.129c0.055-0.057,0.096-0.111,0.123-0.17c0.031-0.057,0.045-0.109,0.045-0.156
			c0.01-0.227-0.011-0.402-0.065-0.533c-0.052-0.133-0.134-0.232-0.24-0.299c-0.109-0.068-0.24-0.113-0.395-0.137
			s-0.326-0.037-0.519-0.045c-0.089,0-0.182,0-0.281-0.002c-0.103-0.004-0.202-0.008-0.302-0.016
			c-0.106-0.002-0.206-0.01-0.302-0.02c-0.1-0.01-0.203-0.023-0.303-0.051c-0.195-0.039-0.377-0.107-0.549-0.197
			c-0.172-0.088-0.319-0.227-0.439-0.418c-0.071-0.037-0.277-0.158-0.624-0.357c-0.347-0.195-0.775-0.445-1.294-0.748h10.23
			l1.218,1.115H261.659z M260.441,557.488h-2.896l0.041,0.018c0.179,0.1,0.34,0.209,0.48,0.33c0.145,0.119,0.268,0.271,0.371,0.453
			c0.089-0.117,0.213-0.209,0.374-0.275c0.157-0.061,0.309-0.092,0.449-0.092c0.206,0,0.374,0.037,0.512,0.119
			c0.134,0.082,0.25,0.182,0.35,0.299c0.062,0.064,0.117,0.135,0.165,0.209c0.052,0.072,0.106,0.148,0.154,0.223V557.488z"/>
		<path fill="#FFFFFF" d="M260.324,567.307c-0.318-0.115-0.642-0.227-0.971-0.328c-0.329-0.107-0.669-0.203-1.022-0.295
			c-0.351-0.098-0.711-0.189-1.078-0.285c-0.367-0.1-0.751-0.199-1.146-0.307l-1.191-2.377c0.195,0.119,0.367,0.219,0.519,0.299
			c0.154,0.082,0.298,0.146,0.429,0.195c0.131,0.047,0.254,0.088,0.367,0.113c0.113,0.027,0.233,0.051,0.347,0.068
			c0.243,0.033,0.487,0.051,0.734,0.055c0.244,0.004,0.491,0.006,0.731,0.006c0.305,0,0.631-0.064,0.964-0.195
			c0.336-0.127,0.646-0.301,0.927-0.521c0.281-0.223,0.511-0.477,0.696-0.766c0.182-0.291,0.271-0.6,0.271-0.926
			c0-0.1-0.024-0.182-0.068-0.244c-0.045-0.061-0.1-0.109-0.172-0.141c-0.068-0.033-0.145-0.051-0.224-0.059
			c-0.082-0.002-0.15-0.002-0.216,0.012c-0.059,0.01-0.113,0.02-0.158,0.02c-0.048,0.008-0.1,0.014-0.15,0.023
			c-0.09,0.025-0.175,0.053-0.258,0.09v0.027c0.007,0.221-0.052,0.436-0.175,0.648c-0.12,0.209-0.278,0.398-0.477,0.566
			c-0.199,0.168-0.419,0.299-0.663,0.398c-0.243,0.1-0.48,0.15-0.71,0.15c-0.151,0-0.313-0.02-0.478-0.061
			c-0.161-0.039-0.309-0.104-0.442-0.186s-0.247-0.186-0.336-0.316c-0.09-0.127-0.134-0.281-0.134-0.457
			c0-0.24,0.055-0.459,0.161-0.658c0.109-0.199,0.254-0.377,0.429-0.527c0.175-0.152,0.378-0.283,0.604-0.396
			c0.226-0.113,0.463-0.205,0.703-0.277c0.243-0.072,0.483-0.127,0.724-0.16c0.24-0.035,0.457-0.053,0.649-0.053
			c0.408,0,0.785,0.039,1.132,0.117s0.642,0.205,0.893,0.377c0.247,0.176,0.439,0.398,0.58,0.68
			c0.137,0.275,0.206,0.611,0.206,1.006c0,0.344-0.083,0.658-0.251,0.939c-0.168,0.279-0.381,0.535-0.638,0.766
			c-0.262,0.227-0.546,0.43-0.858,0.604c-0.313,0.18-0.614,0.33-0.902,0.461c0.055,0.014,0.106,0.033,0.154,0.055
			c0.052,0.021,0.086,0.037,0.096,0.049c0.313,0.164,0.598,0.314,0.845,0.453c0.25,0.137,0.474,0.27,0.673,0.395
			c0.195,0.127,0.374,0.246,0.524,0.359c0.154,0.117,0.299,0.23,0.433,0.34c0.127,0.109,0.251,0.221,0.364,0.33
			c0.116,0.105,0.232,0.223,0.353,0.342c0.124,0.121,0.251,0.244,0.385,0.375c0.134,0.127,0.288,0.268,0.463,0.422l0.192,1.184
			c-0.354-0.322-0.693-0.604-1.012-0.85c-0.323-0.248-0.643-0.465-0.954-0.65c-0.316-0.188-0.625-0.355-0.931-0.496
			C260.949,567.555,260.637,567.424,260.324,567.307z"/>
		<path fill="#FFFFFF" d="M265.283,557.488v9.441c-0.044,0-0.13-0.051-0.261-0.158c-0.127-0.1-0.261-0.213-0.411-0.336
			c-0.165-0.146-0.351-0.313-0.553-0.5v-6.793c0-0.268-0.024-0.504-0.068-0.721c-0.045-0.219-0.124-0.4-0.233-0.545
			c-0.113-0.148-0.261-0.254-0.443-0.322c-0.182-0.066-0.411-0.086-0.687-0.059l-1.025-1.141c0.147,0.012,0.268,0.018,0.36,0.021
			s0.171,0.004,0.233,0.004c0.064,0,0.123,0,0.168-0.004c0.048-0.004,0.103-0.004,0.158-0.004c0.243,0,0.459,0.025,0.645,0.076
			c0.182,0.049,0.351,0.123,0.491,0.223c0.144,0.1,0.274,0.227,0.384,0.389c0.113,0.158,0.22,0.342,0.323,0.559
			c-0.021-0.117-0.045-0.25-0.069-0.4c-0.023-0.156-0.051-0.334-0.085-0.543c-0.031-0.207-0.065-0.453-0.1-0.73
			c-0.035-0.279-0.076-0.602-0.12-0.979l0.651,0.48c0.024,0.158,0.048,0.268,0.072,0.346c0.021,0.076,0.052,0.141,0.093,0.193
			c0.027,0.041,0.082,0.1,0.151,0.174c0.034,0.031,0.064,0.063,0.1,0.094c0.034,0.031,0.071,0.072,0.112,0.119h1.477l1.218,1.115
			H265.283z"/>
		<path fill="#FFFFFF" d="M268.362,555.66c0,0.018,0.017,0.061,0.051,0.131c0.027,0.064,0.069,0.137,0.113,0.223
			c0.031,0.064,0.065,0.127,0.097,0.195c0.03,0.063,0.058,0.117,0.075,0.164h1.805l1.216,1.115h-2.646v9.266
			c-0.093-0.078-0.175-0.15-0.257-0.223c-0.072-0.061-0.148-0.127-0.227-0.195c-0.083-0.068-0.151-0.133-0.217-0.189
			s-0.123-0.113-0.186-0.16c-0.055-0.051-0.106-0.1-0.15-0.148c-0.055-0.051-0.093-0.086-0.117-0.096
			c-0.003-0.014-0.01-0.02-0.017-0.027c-0.004-0.006-0.014-0.014-0.021-0.027c-0.011-0.01-0.018-0.021-0.018-0.023
			c-0.021-0.041-0.021-0.076-0.01-0.096v-8.08h-1.37l-1.229-1.115h2.522c-0.068-0.064-0.141-0.129-0.213-0.191
			c-0.068-0.064-0.141-0.131-0.209-0.195c-0.109-0.109-0.202-0.23-0.285-0.354c-0.079-0.131-0.116-0.266-0.116-0.412
			c0-0.264,0.055-0.521,0.175-0.775c0.117-0.258,0.278-0.494,0.478-0.717c0.205-0.225,0.436-0.43,0.699-0.615
			c0.262-0.182,0.536-0.34,0.824-0.477c0.285-0.135,0.576-0.236,0.871-0.313c0.296-0.072,0.57-0.109,0.827-0.109
			c0.573,0,1.133,0.072,1.672,0.213c0.538,0.141,1.057,0.328,1.555,0.568c0.494,0.24,0.964,0.521,1.41,0.846
			c0.442,0.322,0.865,0.664,1.26,1.025l0.354,0.967c-0.848-0.637-1.624-1.129-2.327-1.479c-0.696-0.35-1.331-0.594-1.897-0.73
			c-0.563-0.135-1.071-0.186-1.514-0.141c-0.446,0.037-0.834,0.127-1.167,0.271c-0.329,0.137-0.61,0.313-0.841,0.521
			c-0.233,0.205-0.419,0.408-0.563,0.6c-0.145,0.195-0.247,0.363-0.313,0.516C268.396,555.543,268.362,555.633,268.362,555.66z"/>
		<path fill="#FFFFFF" d="M278.27,559.205c-0.082-0.684-0.127-1.369-0.134-2.063s-0.007-1.438,0-2.23l0.738,0.5l0.085,0.135
			c0.007,0.123,0.021,0.223,0.042,0.305c0.017,0.076,0.048,0.148,0.089,0.207s0.093,0.109,0.158,0.16
			c0.064,0.053,0.15,0.1,0.261,0.154h0.573h0.422l1.197,1.115h-2.33v9.211c-0.199-0.115-0.354-0.219-0.47-0.305
			c-0.113-0.09-0.217-0.176-0.306-0.258s-0.179-0.164-0.265-0.25s-0.178-0.178-0.274-0.277c0.021-0.855,0.041-1.623,0.062-2.303
			c0.004-0.285,0.011-0.57,0.018-0.848c0.007-0.275,0.011-0.525,0.014-0.748c0.004-0.217,0.004-0.396,0.004-0.537
			c0-0.137,0-0.211,0-0.223c0-0.1-0.031-0.227-0.09-0.377c-0.062-0.15-0.141-0.309-0.236-0.467c-0.097-0.158-0.199-0.305-0.31-0.449
			c-0.112-0.137-0.216-0.244-0.312-0.313l-3.298,3.055l-1.682-0.563c0.109-0.111,0.195-0.193,0.261-0.248
			c0.062-0.059,0.123-0.109,0.182-0.164c0.059-0.045,0.113-0.096,0.168-0.145c0.055-0.051,0.106-0.096,0.158-0.145
			c0.109-0.105,0.195-0.213,0.254-0.318c0.062-0.104,0.093-0.213,0.093-0.33c0-0.1-0.011-0.199-0.031-0.299
			c-0.021-0.092-0.048-0.182-0.089-0.26c-0.045-0.084-0.1-0.145-0.165-0.189c-0.068-0.049-0.147-0.072-0.243-0.072
			c-0.093,0-0.186,0.014-0.285,0.049c-0.1,0.031-0.206,0.072-0.329,0.115c-0.059,0.025-0.113,0.049-0.172,0.07
			c-0.059,0.02-0.113,0.041-0.165,0.055c-0.059,0.02-0.113,0.033-0.172,0.047c-0.058,0.012-0.113,0.018-0.171,0.018
			c-0.11,0-0.217-0.027-0.316-0.078c-0.103-0.055-0.195-0.121-0.281-0.203c-0.082-0.086-0.147-0.176-0.195-0.275
			s-0.072-0.195-0.072-0.291s0.021-0.191,0.059-0.281c0.038-0.092,0.082-0.176,0.134-0.254c0.209-0.322,0.446-0.611,0.707-0.875
			c0.257-0.268,0.542-0.49,0.857-0.676c0.31-0.182,0.652-0.326,1.023-0.426c0.374-0.096,0.769-0.148,1.19-0.148
			c0.412,0,0.793,0.063,1.146,0.182c0.354,0.125,0.676,0.293,0.968,0.502c0.291,0.213,0.549,0.459,0.771,0.742
			c0.227,0.277,0.416,0.578,0.577,0.902c0.023,0.055,0.055,0.113,0.086,0.174C278.208,559.078,278.235,559.139,278.27,559.205z
			 M272.882,558.639c0.172,0.014,0.34,0.063,0.501,0.148c0.165,0.082,0.306,0.191,0.426,0.322c0.123,0.133,0.223,0.277,0.298,0.441
			c0.076,0.162,0.117,0.324,0.117,0.484l1.983-1.799c-0.172-0.17-0.374-0.297-0.601-0.391c-0.223-0.092-0.463-0.137-0.714-0.137
			c-0.433,0-0.823,0.072-1.17,0.215C273.379,558.068,273.098,558.307,272.882,558.639z"/>
		<path fill="#FFFFFF" d="M280.339,557.488l-1.225-1.115h12.56l1.305,1.115H280.339z M287.271,565.539
			c-0.618,0-1.188-0.129-1.709-0.387c-0.521-0.254-0.999-0.602-1.438-1.025c-0.436-0.43-0.834-0.918-1.184-1.463
			c-0.354-0.553-0.669-1.115-0.951-1.695c-0.281-0.58-0.524-1.15-0.734-1.713c-0.209-0.563-0.384-1.076-0.531-1.537l0.844,0.316
			c0.172,0.387,0.364,0.799,0.577,1.232c0.209,0.438,0.442,0.867,0.699,1.299c0.255,0.426,0.536,0.838,0.845,1.229
			c0.306,0.393,0.646,0.742,1.016,1.045c0.371,0.299,0.772,0.537,1.208,0.717c0.436,0.182,0.906,0.271,1.421,0.271
			c0.292,0,0.59-0.059,0.896-0.18c0.302-0.113,0.58-0.273,0.827-0.473c0.251-0.199,0.46-0.43,0.625-0.689
			c0.168-0.262,0.264-0.533,0.298-0.814c0.024-0.268-0.017-0.535-0.123-0.793c-0.11-0.264-0.261-0.496-0.453-0.703
			c-0.192-0.209-0.408-0.377-0.648-0.5c-0.24-0.131-0.478-0.193-0.714-0.193c-0.068,0-0.145,0.008-0.22,0.018
			c-0.075,0.014-0.154,0.027-0.229,0.037c0.109,0.145,0.185,0.299,0.229,0.461c0.045,0.16,0.065,0.326,0.065,0.498
			c0,0.242-0.038,0.455-0.117,0.627s-0.195,0.316-0.343,0.432c-0.145,0.113-0.322,0.197-0.525,0.248
			c-0.206,0.055-0.429,0.082-0.673,0.082c-0.291,0-0.552-0.051-0.775-0.146c-0.223-0.098-0.408-0.227-0.56-0.393
			c-0.144-0.16-0.257-0.354-0.332-0.572c-0.076-0.223-0.117-0.457-0.117-0.711c0-0.301,0.068-0.58,0.213-0.826
			c0.141-0.244,0.326-0.457,0.556-0.633c0.23-0.174,0.491-0.309,0.782-0.404c0.289-0.092,0.584-0.137,0.886-0.137
			c0.569,0,1.115,0.1,1.647,0.305c0.525,0.207,0.985,0.498,1.38,0.869c0.395,0.377,0.696,0.826,0.912,1.352
			c0.217,0.525,0.299,1.102,0.244,1.736c-0.041,0.463-0.165,0.889-0.381,1.283c-0.213,0.393-0.491,0.73-0.834,1.016
			c-0.34,0.289-0.731,0.516-1.174,0.676C288.232,565.461,287.766,565.539,287.271,565.539z"/>
		<path fill="#FFFFFF" d="M299.667,561.164c-0.319,0-0.632-0.055-0.927-0.168s-0.56-0.264-0.786-0.457
			c-0.229-0.195-0.408-0.422-0.542-0.686s-0.202-0.549-0.202-0.855c0-0.281,0.072-0.551,0.22-0.816
			c0.147-0.26,0.343-0.498,0.58-0.703c0.243-0.203,0.508-0.367,0.803-0.49c0.292-0.121,0.59-0.182,0.893-0.182
			c0.322,0,0.624,0.055,0.898,0.168s0.515,0.271,0.714,0.467c0.203,0.195,0.364,0.426,0.474,0.686
			c0.12,0.262,0.175,0.535,0.175,0.82c0,0.281-0.062,0.557-0.182,0.82c-0.12,0.268-0.288,0.508-0.494,0.715
			c-0.206,0.209-0.453,0.373-0.734,0.496C300.274,561.104,299.979,561.164,299.667,561.164z M299.646,566.4
			c-0.326,0-0.635-0.057-0.923-0.178c-0.292-0.117-0.546-0.273-0.759-0.477c-0.216-0.203-0.385-0.436-0.512-0.697
			c-0.123-0.264-0.185-0.545-0.185-0.844c0-0.281,0.071-0.559,0.216-0.828s0.329-0.51,0.56-0.719
			c0.233-0.211,0.494-0.383,0.785-0.512c0.296-0.131,0.591-0.193,0.893-0.193c0.319,0,0.614,0.063,0.879,0.186
			c0.264,0.123,0.494,0.285,0.683,0.49c0.192,0.207,0.344,0.438,0.453,0.701c0.109,0.26,0.161,0.527,0.161,0.803
			c0,0.277-0.055,0.549-0.172,0.816c-0.113,0.271-0.274,0.516-0.473,0.732c-0.203,0.215-0.439,0.391-0.714,0.521
			C300.264,566.336,299.966,566.4,299.646,566.4z M300.116,557.99c-0.206,0-0.397,0.041-0.58,0.123
			c-0.182,0.08-0.343,0.193-0.483,0.33c-0.141,0.133-0.251,0.295-0.329,0.471c-0.083,0.174-0.124,0.354-0.124,0.535
			c0,0.188,0.041,0.34,0.117,0.459c0.075,0.117,0.205,0.172,0.391,0.172c0.195,0,0.385-0.035,0.577-0.104
			c0.191-0.068,0.367-0.172,0.518-0.299c0.154-0.129,0.278-0.281,0.374-0.453c0.097-0.17,0.145-0.359,0.145-0.564
			c0-0.213-0.045-0.379-0.134-0.496C300.497,558.049,300.34,557.99,300.116,557.99z M299.855,563.107
			c-0.202,0-0.381,0.041-0.528,0.123c-0.151,0.082-0.278,0.186-0.381,0.318c-0.103,0.131-0.179,0.281-0.229,0.453
			c-0.052,0.168-0.076,0.344-0.076,0.525c0,0.113,0.007,0.221,0.027,0.326c0.021,0.107,0.049,0.199,0.097,0.281
			c0.044,0.082,0.103,0.148,0.182,0.195c0.079,0.053,0.172,0.076,0.288,0.076c0.192,0,0.371-0.037,0.542-0.117
			c0.169-0.078,0.319-0.178,0.446-0.309c0.127-0.123,0.23-0.268,0.306-0.436c0.075-0.162,0.113-0.334,0.113-0.508
			c0-0.135-0.011-0.262-0.038-0.375c-0.023-0.113-0.068-0.213-0.127-0.295c-0.062-0.082-0.144-0.145-0.247-0.191
			C300.13,563.127,300.007,563.107,299.855,563.107z"/>
		<path fill="#FFFFFF" d="M309.063,563.902l-0.979-3.119l0.23-0.061c0.037,0.137,0.141,0.27,0.315,0.4
			c0.172,0.135,0.381,0.262,0.625,0.381c0.243,0.123,0.508,0.24,0.799,0.348c0.292,0.102,0.577,0.195,0.854,0.273
			c0.278,0.08,0.539,0.141,0.786,0.186c0.244,0.045,0.446,0.063,0.601,0.063c0.172,0,0.367-0.025,0.587-0.082
			c0.223-0.057,0.429-0.129,0.618-0.227c0.191-0.098,0.356-0.213,0.487-0.352c0.13-0.129,0.195-0.281,0.195-0.445
			c0-0.049-0.007-0.094-0.024-0.145c-0.017-0.049-0.037-0.1-0.062-0.154c-0.134-0.258-0.299-0.484-0.494-0.68
			s-0.408-0.373-0.642-0.531s-0.478-0.303-0.734-0.422c-0.254-0.125-0.508-0.238-0.759-0.344c-0.127-0.051-0.25-0.107-0.374-0.154
			c-0.12-0.051-0.233-0.1-0.343-0.15c-0.237-0.111-0.443-0.217-0.614-0.326c-0.179-0.117-0.326-0.248-0.437-0.389
			c-0.113-0.141-0.168-0.309-0.168-0.5c0-0.139,0.021-0.27,0.062-0.389c0.042-0.123,0.09-0.244,0.151-0.359
			c0.134-0.117,0.281-0.213,0.442-0.289c0.165-0.076,0.34-0.117,0.522-0.117c0.384,0,0.665,0.09,0.844,0.264
			c0.182,0.176,0.288,0.416,0.329,0.721c0.389,0.184,0.786,0.381,1.191,0.605c0.405,0.219,0.772,0.469,1.098,0.754
			c0.326,0.285,0.594,0.611,0.804,0.979c0.206,0.371,0.312,0.789,0.312,1.266c0,0.406-0.062,0.762-0.185,1.072
			c-0.12,0.305-0.292,0.572-0.515,0.803c-0.217,0.227-0.484,0.426-0.793,0.586c-0.313,0.168-0.652,0.303-1.022,0.412
			c0.36,0.203,0.714,0.418,1.063,0.652c0.35,0.236,0.7,0.48,1.043,0.738c0.34,0.256,0.677,0.525,1.002,0.795
			c0.326,0.271,0.643,0.539,0.947,0.805l0.316,1.547c-0.553-0.531-1.153-1.037-1.802-1.518c-0.646-0.477-1.312-0.908-2.005-1.293
			c-0.692-0.389-1.396-0.717-2.117-0.992C310.498,564.236,309.78,564.033,309.063,563.902z"/>
		<path fill="#FFFFFF" d="M321.452,565.646c-0.591,0-1.126-0.104-1.616-0.299c-0.491-0.199-0.906-0.471-1.256-0.813
			c-0.347-0.344-0.618-0.748-0.811-1.209c-0.192-0.463-0.288-0.957-0.288-1.475c0-0.512,0.113-0.973,0.34-1.387
			c0.229-0.412,0.532-0.766,0.902-1.061c0.374-0.293,0.803-0.52,1.287-0.676c0.48-0.158,0.981-0.24,1.5-0.24
			c0.563,0,1.088,0.092,1.571,0.273c0.487,0.186,0.906,0.436,1.264,0.76c0.354,0.318,0.631,0.703,0.834,1.145
			c0.198,0.443,0.298,0.928,0.298,1.445c0,0.488-0.109,0.943-0.34,1.377c-0.223,0.432-0.524,0.807-0.898,1.125
			s-0.804,0.57-1.284,0.756C322.472,565.553,321.971,565.646,321.452,565.646z M322.2,559.65c-0.436,0-0.851,0.094-1.256,0.279
			s-0.762,0.426-1.074,0.723c-0.313,0.299-0.563,0.639-0.748,1.02s-0.278,0.77-0.278,1.16c0,0.223,0.048,0.43,0.138,0.617
			c0.096,0.193,0.22,0.361,0.374,0.506c0.157,0.143,0.343,0.256,0.553,0.336c0.212,0.082,0.438,0.127,0.683,0.127
			c0.415,0,0.827-0.09,1.242-0.268c0.412-0.176,0.779-0.408,1.105-0.693c0.326-0.289,0.594-0.615,0.8-0.984
			c0.198-0.371,0.305-0.746,0.305-1.133c0-0.254-0.044-0.48-0.134-0.688c-0.093-0.201-0.216-0.381-0.377-0.531
			c-0.158-0.148-0.351-0.264-0.577-0.346C322.726,559.691,322.475,559.65,322.2,559.65z"/>
		<path fill="#FFFFFF" d="M327.973,563.902l-0.975-3.119l0.227-0.061c0.041,0.137,0.145,0.27,0.319,0.4
			c0.172,0.135,0.381,0.262,0.621,0.381c0.243,0.123,0.511,0.24,0.803,0.348c0.288,0.102,0.573,0.195,0.854,0.273
			c0.274,0.08,0.539,0.141,0.786,0.186c0.243,0.045,0.446,0.063,0.597,0.063c0.172,0,0.367-0.025,0.591-0.082
			c0.22-0.057,0.426-0.129,0.617-0.227c0.192-0.098,0.354-0.213,0.484-0.352c0.134-0.129,0.199-0.281,0.199-0.445
			c0-0.049-0.011-0.094-0.027-0.145c-0.014-0.049-0.034-0.1-0.063-0.154c-0.134-0.258-0.298-0.484-0.49-0.68
			c-0.195-0.195-0.412-0.373-0.646-0.531s-0.477-0.303-0.734-0.422c-0.254-0.125-0.508-0.238-0.758-0.344
			c-0.127-0.051-0.251-0.107-0.371-0.154c-0.123-0.051-0.236-0.1-0.347-0.15c-0.236-0.111-0.439-0.217-0.614-0.326
			c-0.179-0.117-0.322-0.248-0.436-0.389s-0.168-0.309-0.168-0.5c0-0.139,0.021-0.27,0.064-0.389
			c0.041-0.123,0.09-0.244,0.147-0.359c0.134-0.117,0.285-0.213,0.446-0.289s0.337-0.117,0.521-0.117
			c0.385,0,0.666,0.09,0.845,0.264c0.179,0.176,0.288,0.416,0.326,0.721c0.388,0.184,0.786,0.381,1.194,0.605
			c0.404,0.219,0.771,0.469,1.098,0.754s0.591,0.611,0.8,0.979c0.209,0.371,0.313,0.789,0.313,1.266
			c0,0.406-0.062,0.762-0.182,1.072c-0.12,0.305-0.292,0.572-0.516,0.803c-0.219,0.227-0.483,0.426-0.796,0.586
			c-0.309,0.168-0.648,0.303-1.02,0.412c0.357,0.203,0.714,0.418,1.064,0.652c0.35,0.236,0.7,0.48,1.04,0.738
			c0.343,0.256,0.676,0.525,1.005,0.795c0.323,0.271,0.642,0.539,0.947,0.805l0.315,1.547c-0.556-0.531-1.156-1.037-1.805-1.518
			c-0.642-0.477-1.311-0.908-2.001-1.293c-0.693-0.389-1.4-0.717-2.117-0.992C329.407,564.236,328.69,564.033,327.973,563.902z"/>
		<path fill="#FFFFFF" d="M341.604,563.535c0,0.662,0.224,1.188,0.67,1.576c0.445,0.385,1.095,0.68,1.938,0.875
			c-0.456,0.199-0.857,0.332-1.204,0.391c-0.351,0.066-0.687,0.094-1.013,0.094c-0.467,0-0.927-0.039-1.38-0.117
			c-0.456-0.08-0.889-0.195-1.301-0.35c-0.411-0.158-0.792-0.354-1.143-0.592c-0.347-0.236-0.648-0.514-0.906-0.83
			c-0.254-0.314-0.452-0.676-0.597-1.076c-0.145-0.402-0.216-0.842-0.216-1.322c0-0.385,0.064-0.779,0.198-1.188
			c0.138-0.412,0.323-0.813,0.56-1.207c0.233-0.395,0.512-0.773,0.834-1.133c0.319-0.365,0.666-0.684,1.047-0.975
			c0.374-0.285,0.769-0.529,1.184-0.725c0.412-0.195,0.827-0.326,1.25-0.391l2.12,0.449c-0.236,0.051-0.436,0.123-0.601,0.213
			c-0.161,0.092-0.295,0.191-0.397,0.301c-0.1,0.107-0.179,0.221-0.224,0.338c-0.051,0.115-0.072,0.232-0.072,0.342
			c0,0.217,0.065,0.371,0.196,0.465c0.13,0.096,0.288,0.16,0.474,0.195c0.103,0.01,0.199,0.02,0.298,0.027
			c0.097,0.006,0.186,0.01,0.269,0.018c0.103,0.006,0.191,0.014,0.268,0.023c0.078,0.006,0.134,0.02,0.175,0.045
			c0.134,0.105,0.292,0.215,0.48,0.326c0.158,0.1,0.35,0.213,0.573,0.332c0.223,0.123,0.487,0.244,0.785,0.363
			c-0.339,0.076-0.676,0.18-1.016,0.303s-0.665,0.271-0.984,0.439c-0.316,0.164-0.611,0.357-0.886,0.563s-0.515,0.43-0.717,0.666
			c-0.206,0.232-0.367,0.48-0.487,0.744S341.604,563.254,341.604,563.535z M340.969,558.334c-0.415,0.191-0.807,0.445-1.174,0.754
			c-0.37,0.313-0.686,0.656-0.961,1.043c-0.268,0.385-0.487,0.789-0.648,1.223c-0.154,0.428-0.236,0.857-0.236,1.287
			c0,0.391,0.089,0.744,0.268,1.053c0.179,0.313,0.412,0.584,0.7,0.82c0.288,0.234,0.617,0.426,0.988,0.588
			c0.37,0.156,0.748,0.281,1.133,0.369c-0.289-0.295-0.512-0.613-0.663-0.963c-0.154-0.348-0.229-0.729-0.229-1.131
			c0-0.35,0.052-0.695,0.158-1.035c0.105-0.34,0.257-0.662,0.449-0.965c0.195-0.309,0.433-0.584,0.703-0.826
			c0.278-0.24,0.587-0.443,0.934-0.602c-0.229-0.059-0.422-0.137-0.576-0.232c-0.154-0.098-0.281-0.213-0.388-0.352
			c-0.106-0.137-0.196-0.291-0.265-0.463C341.089,558.734,341.027,558.547,340.969,558.334z"/>
	</g>
	<g>
		<path fill="#EC2227" d="M346.889,541.482c0,0,26.923-149.242-151.254-304.576C195.635,236.906,476.059,399.855,346.889,541.482z"
			/>
		<path fill="#EC2227" d="M380.898,427.012l-10.636-32.486c0,0,34.01-39.088,80.71-66.501
			C450.973,328.024,411.839,361.018,380.898,427.012z"/>
		<ellipse fill="#EC2227" cx="369.242" cy="335.894" rx="22.082" ry="27.413"/>
	</g>
</g>
</svg>
